<?xml version="1.0" standalone="no"?>
<!DOCTYPE svg PUBLIC "-//W3C//DTD SVG 1.1//EN" "http://www.w3.org/Graphics/SVG/1.1/DTD/svg11.dtd" >
<svg xmlns="http://www.w3.org/2000/svg">
<metadata></metadata>
<defs>
<font id="se_roundedlight_italic" horiz-adv-x="1207" >
<font-face units-per-em="2048" ascent="1579" descent="-469" />
<missing-glyph horiz-adv-x="620" />
<glyph horiz-adv-x="0" />
<glyph unicode="&#xd;" horiz-adv-x="688" />
<glyph unicode=" "  horiz-adv-x="620" />
<glyph unicode="&#x09;" horiz-adv-x="620" />
<glyph unicode="&#xa0;" horiz-adv-x="620" />
<glyph unicode="!" horiz-adv-x="537" d="M154 43q0 2 1 6.5t1 6.5q6 34 33 58t61 24q30 0 49 -19t19 -48q0 -38 -29.5 -67t-67.5 -29q-30 0 -48.5 19.5t-18.5 48.5zM284 432l89 616l71 408q0 3 6 7t12 4h51q10 0 10 -11l-73 -406l-130 -618q0 -6 -5.5 -10t-10.5 -4h-8q-12 0 -12 14z" />
<glyph unicode="&#x22;" horiz-adv-x="690" d="M271 1062l45 379l15 83q4 11 16 11h50q3 0 6.5 -3.5t3.5 -7.5l-12 -80l-89 -382q-4 -16 -14 -16h-8q-13 0 -13 16zM631 1062l46 379l14 83q4 11 16 11h51q3 0 6.5 -3.5t3.5 -7.5l-13 -80l-89 -382q-4 -16 -15 -16h-8q-12 0 -12 16z" />
<glyph unicode="#" d="M138 444v38q0 4 4 8t10 4h197l87 379h-284q-6 0 -10 4.5t-4 10.5v39q0 4 4 8t10 4h301l104 443q3 14 20 14h37q6 0 6 -10l-103 -447h391l103 443q1 6 8.5 10t14.5 4h38q6 0 6 -10l-103 -447h202q6 0 10.5 -3.5t4.5 -8.5v-39q0 -6 -4.5 -10.5t-10.5 -4.5h-220l-86 -379 h306q6 0 10.5 -3.5t4.5 -8.5v-38q0 -14 -15 -14h-321l-94 -414q-3 -16 -20 -16h-37q-10 0 -10 12l97 418h-393l-95 -414q-3 -16 -16 -16h-40q-8 0 -8 12l95 418h-183q-6 0 -10 4t-4 10zM414 494h391l89 379h-393z" />
<glyph unicode="$" horiz-adv-x="1226" d="M75 152q0 4 4 8l28 28q7 7 13 7q3 0 6 -3q91 -81 187 -116t237 -35q224 0 369 109.5t145 283.5q0 110 -104 177.5t-340 110.5q-176 31 -273 115t-97 207q0 121 73 215.5t188 146.5t251 61l24 142q0 5 5.5 9t11.5 4h36q11 0 11 -13l-25 -140q130 -3 241.5 -44.5 t176.5 -121.5q4 -8 4 -10q0 -9 -10 -16l-21 -18q-6 -6 -12 -6q-7 0 -12 8q-79 77 -170 109.5t-236 32.5q-195 0 -329.5 -104t-134.5 -251q0 -101 84.5 -166t270.5 -100q458 -84 458 -346q0 -101 -46 -186.5t-124 -144.5t-182.5 -92.5t-221.5 -37.5l-19 -113q-4 -16 -17 -16 h-37q-10 0 -10 16l21 115q-268 9 -418 165q-6 6 -6 10z" />
<glyph unicode="%" horiz-adv-x="1600" d="M184 927q0 65 15 145q35 199 117 291.5t211 92.5q213 0 213 -240q0 -70 -14 -144q-35 -198 -118.5 -290.5t-216.5 -92.5q-207 0 -207 238zM255 939q0 -191 146 -191q112 0 191 116t79 336q0 194 -156 194q-107 0 -183.5 -117t-76.5 -338zM304 8q0 6 4 10l1076 1411 q12 12 23 12h45q8 0 8 -6q0 -4 -4 -8l-1071 -1411q-13 -16 -23 -16h-50q-8 0 -8 8zM1044 223q0 66 15 146q36 200 118.5 293t214.5 93q209 0 209 -240q0 -69 -14 -146q-35 -197 -118 -289t-214 -92q-105 0 -158 56.5t-53 178.5zM1117 235q0 -190 149 -190q109 0 188 118 t79 336q0 194 -151 194q-109 0 -187 -117.5t-78 -340.5z" />
<glyph unicode="&#x26;" horiz-adv-x="1401" d="M148 333q0 57 12.5 105.5t42 92t61.5 77.5t89 75t104 70.5t127 75.5q-89 104 -127.5 170.5t-38.5 125.5q0 86 52 164.5t144 128t199 49.5q123 0 200 -68t77 -173q0 -120 -88.5 -210t-318.5 -211l383 -472q167 217 231 433q0 4 4.5 8t9.5 4h33q4 0 10 -12 q-86 -274 -247 -474l219 -269q4 -8 4 -11q0 -12 -10 -12h-41q-18 0 -30 14l-183 226q-125 -127 -265.5 -196t-285.5 -69q-163 0 -265 103t-102 255zM223 345q0 -131 82.5 -217.5t240.5 -86.5q245 0 476 245l-404 496q-69 -41 -111.5 -67.5t-93.5 -62.5t-81 -67.5t-57.5 -69 t-39.5 -80t-12 -90.5zM490 1127q0 -56 34.5 -116.5t118.5 -154.5q188 91 282.5 176.5t94.5 187.5q0 87 -56 133.5t-161 46.5q-115 0 -203.5 -69t-107.5 -171q-2 -10 -2 -33z" />
<glyph unicode="'" horiz-adv-x="328" d="M271 1062l45 379l15 83q4 11 16 11h50q3 0 6.5 -3.5t3.5 -7.5l-12 -80l-89 -382q-4 -16 -14 -16h-8q-13 0 -13 16z" />
<glyph unicode="(" horiz-adv-x="562" d="M134 248q0 314 116.5 646t326.5 598q37 43 60 43h12q9 0 14.5 -5t5.5 -12q0 -3 -7 -14q-128 -154 -220.5 -329t-142 -345t-72 -324t-22.5 -301q0 -336 124 -590q0 -2 1 -4.5t1 -3.5q0 -9 -8 -15t-17 -6h-12q-4 0 -8 1t-7 2.5t-6.5 4.5t-5 4.5t-5 6.5t-4.5 7t-5 8t-5 7 q-114 272 -114 621z" />
<glyph unicode=")" horiz-adv-x="562" d="M-35 -401q0 8 8 16q127 155 219.5 330.5t141.5 346.5t70.5 323t21.5 299q0 338 -120 590q-2 4 -2 10q0 9 7 15t16 6h12q26 0 48 -43q114 -262 114 -604q0 -310 -116.5 -648t-326.5 -613q-1 -1 -8.5 -8t-9.5 -9t-8 -7.5t-9 -7t-8 -4.5t-9.5 -4t-9.5 -1h-12q-19 0 -19 13z " />
<glyph unicode="*" horiz-adv-x="1023" d="M136 1127v40q0 6 12 12l396 -14l-215 331q-5 9 6 20l36 23q13 6 20 -8l184 -352l177 352q8 15 22 8l33 -23q6 -3 8.5 -9t-0.5 -9l-215 -333q73 1 217 7t182 7q5 0 8.5 -3.5t3.5 -8.5v-40q0 -14 -12 -14l-399 18q39 -57 115.5 -180.5t99.5 -158.5q0 -13 -8 -16l-33 -18 q-11 -6 -19 2l-180 355l-184 -353q-10 -11 -18 -4l-38 18q-10 3 -6 16l215 339l-396 -18q-12 4 -12 14z" />
<glyph unicode="+" d="M138 669v36q0 4 4.5 8.5t9.5 4.5h481v480q0 12 14 12h38q10 0 10 -12v-480h482q6 0 10.5 -4t4.5 -9v-36q0 -14 -15 -14h-482v-481q0 -14 -10 -14h-38q-14 0 -14 14v481h-481q-14 0 -14 14z" />
<glyph unicode="," horiz-adv-x="427" d="M8 -314q0 4 6 10q74 83 102 136.5t38 103.5v12q0 18 -35.5 45t-35.5 54q0 32 30.5 61.5t64.5 29.5q28 0 48 -22.5t20 -61.5q0 -171 -205 -379q-3 -3 -9 -5t-9 1l-11 9q-4 4 -4 6z" />
<glyph unicode="-" horiz-adv-x="651" d="M105 575l7 39q0 5 5 9t11 4h490q13 0 13 -13l-7 -39q-4 -14 -18 -14h-490q-11 0 -11 14z" />
<glyph unicode="." horiz-adv-x="415" d="M79 33q0 10 2 14q4 32 29.5 53.5t57.5 21.5q26 0 42.5 -17.5t16.5 -44.5q0 -34 -27 -59.5t-60 -25.5q-27 0 -44 16.5t-17 41.5z" />
<glyph unicode="/" horiz-adv-x="642" d="M-83 -158q0 1 4 10l859 1664q10 19 25 19h28q6 0 6 -9q0 -6 -2 -10l-857 -1668q-10 -16 -25 -16h-30q-8 0 -8 10z" />
<glyph unicode="0" d="M136 426q0 132 30 294q68 391 221.5 569t404.5 178q200 0 303 -110.5t103 -345.5q0 -113 -29 -291q-70 -392 -224.5 -568.5t-407.5 -176.5q-199 0 -300 109t-101 342zM205 444q0 -211 83.5 -307t251.5 -96q220 0 358.5 162t202.5 517q26 149 26 273q0 211 -84.5 310.5 t-252.5 99.5q-216 0 -355 -164.5t-202 -518.5q-28 -163 -28 -276z" />
<glyph unicode="1" d="M387 1011q0 7 6 13l542 415q2 2 12 2h42q10 0 10 -12l-249 -1415q-3 -14 -14 -14h-39q-12 0 -12 14l235 1342l-492 -383q-4 -2 -10 -2t-6 4l-23 28q-2 2 -2 8z" />
<glyph unicode="2" d="M97 14l8 50q5 21 27 39l807 657q89 83 127.5 163.5t38.5 179.5q0 130 -86 215t-227 85t-250.5 -74.5t-170.5 -191.5q-5 -10 -15 -10l-40 8q-8 4 -8 13q0 4 2 6q56 134 188 223.5t298 89.5q173 0 276 -95.5t103 -248.5q0 -254 -200 -416l-793 -645h803q10 0 10 -13l-6 -35 q-3 -14 -14 -14h-865q-13 0 -13 14z" />
<glyph unicode="3" d="M146 197q0 16 16 20q31 14 30 14q3 0 15 -8q44 -88 115.5 -135t192.5 -47q117 0 223.5 58.5t173.5 163t67 227.5q0 128 -88 202t-233 74h-40q-12 0 -12 14l6 37q4 12 17 12h18q98 0 184.5 44t140.5 125t54 179q0 101 -71 163.5t-187 62.5q-101 0 -187 -48.5t-121 -103.5 q-16 -15 -18 -8l-39 25q-7 7 -2 13q149 186 369 186q143 0 235.5 -78t92.5 -201q0 -253 -283 -387q231 -80 231 -317q0 -138 -75.5 -256t-198.5 -185.5t-259 -67.5q-84 0 -153 22t-111 58t-66.5 71.5t-36.5 70.5z" />
<glyph unicode="4" d="M41 399l6 37q0 10 7 12q2 1 4 -2l980 981q17 14 34 14h37q12 0 12 -12l-172 -983h226q8 0 8 -14l-6 -35q0 -4 -4.5 -8t-9.5 -4h-226l-64 -371q-4 -14 -15 -14h-39q-12 0 -12 14l64 371h-822q-8 0 -8 14zM144 446h739l155 896z" />
<glyph unicode="5" d="M118 201q-1 4 4.5 9t11.5 7l32 16q10 0 18 -8q41 -82 122 -133t195 -51q75 0 150 25t140 71.5t117 107t81 139t29 160.5q0 151 -98.5 241t-261.5 90q-211 0 -340 -105q-8 -8 -20 -8l-21 8q-6 0 -6 8q0 4 4 12l183 664q8 13 18 13h712q8 0 8 -13l-6 -37q0 -4 -5 -8t-10 -4 h-664l-153 -540q60 25 89 36t94 25.5t128 14.5q187 0 303 -104t116 -276q0 -160 -84 -296t-219.5 -213t-285.5 -77q-79 0 -148.5 22.5t-115.5 57.5t-76 73t-41 73z" />
<glyph unicode="6" d="M146 381q0 64 18 169q27 154 81 290.5t136.5 251.5t187 198.5t238.5 130t285 46.5q9 0 9 -15l-7 -37q0 -4 -4.5 -8t-9.5 -4q-291 0 -494 -179t-319 -502l12 -6q187 200 422 200q177 0 287 -105t110 -274q0 -154 -80.5 -285.5t-207 -204t-266.5 -72.5q-190 0 -294 104 t-104 302zM213 371q0 -148 88 -239t245 -91q91 0 178 37t155 100.5t109.5 156.5t41.5 198q0 147 -91 233t-240 86q-94 0 -181 -33.5t-155 -93.5t-109 -152.5t-41 -201.5z" />
<glyph unicode="7" d="M216.5 8q-1.5 8 2.5 12l999 1358h-893q-11 0 -11 14l6 37q4 12 15 12h950q12 0 12 -12l-8 -47q-1 -12 -19 -44l-962 -1313q-21 -25 -35 -25h-50q-5 0 -6.5 8z" />
<glyph unicode="8" d="M158 333q0 137 88 263t248 192l3 17q-139 100 -139 261q0 111 61 204.5t161 145t214 51.5q143 0 234 -82t91 -208q0 -102 -62 -200.5t-188 -171.5l-2 -17q97 -49 148 -133t51 -183q0 -132 -73.5 -247t-194.5 -182.5t-258 -67.5q-170 0 -276 102t-106 256zM227 343 q0 -128 87 -215t228 -87q113 0 218.5 59t170 157t64.5 205q0 127 -87.5 212.5t-228.5 85.5q-117 0 -222.5 -59t-167.5 -155.5t-62 -202.5zM428 1074q0 -105 69.5 -178t183.5 -73q69 0 137.5 30.5t118.5 79t80.5 111t30.5 125.5q0 101 -69.5 167.5t-186.5 66.5 q-131 0 -235 -83t-125 -199q-4 -32 -4 -47z" />
<glyph unicode="9" d="M231 -10l7 37q0 4 4.5 8t9.5 4q291 0 494 179t320 502l-14 6q-186 -201 -421 -201q-177 0 -287.5 105t-110.5 274q0 116 47.5 222t125 180t178 117.5t204.5 43.5q191 0 294.5 -104t103.5 -301q0 -65 -17 -170q-34 -193 -111.5 -357.5t-193 -290.5t-276.5 -197.5 t-348 -71.5q-9 0 -9 15zM302 908q0 -146 91 -232t240 -86q94 0 181 34t155 94t109 152.5t41 201.5q0 147 -88 237.5t-245 90.5q-91 0 -178 -37t-155 -100.5t-109.5 -156.5t-41.5 -198z" />
<glyph unicode=":" horiz-adv-x="446" d="M97 33q0 10 2 14q4 32 30 53.5t57 21.5q26 0 43 -18t17 -44q0 -34 -27 -59.5t-59 -25.5q-28 0 -45.5 16.5t-17.5 41.5zM265 995q0 10 2 14q4 31 29.5 53t57.5 22q26 0 43 -18t17 -44q0 -33 -27 -59t-60 -26q-28 0 -45 16.5t-17 41.5z" />
<glyph unicode=";" horiz-adv-x="454" d="M23 -314q0 4 6 10q73 82 101.5 135.5t37.5 104.5v12q0 18 -35.5 45t-35.5 54q0 32 31 61.5t64 29.5q28 0 48.5 -22.5t20.5 -61.5q0 -171 -205 -379q-3 -3 -9.5 -5t-9.5 1l-10 9q-4 4 -4 6zM273 995q0 10 2 14q4 31 29.5 53t57.5 22q26 0 43 -18t17 -44q0 -33 -27 -59 t-60 -26q-28 0 -45 16.5t-17 41.5z" />
<glyph unicode="&#x3c;" d="M164 705q0 3 8 11l978 423q6 3 11.5 -1t5.5 -9v-41q0 -13 -11 -16l-910 -389l910 -389q11 -3 11 -17v-39q0 -5 -5.5 -9.5t-11.5 -1.5l-978 424l-6 7z" />
<glyph unicode="=" d="M138 442v40q0 4 4 8t10 4h1025q6 0 10.5 -3.5t4.5 -8.5v-40q0 -12 -15 -12h-1025q-14 0 -14 12zM138 886v38q0 5 4.5 9t9.5 4h1025q6 0 10.5 -4t4.5 -9v-38q0 -13 -15 -13h-1025q-14 0 -14 13z" />
<glyph unicode="&#x3e;" d="M39 238v39q0 14 10 17l911 389l-911 389q-10 3 -10 16v41q0 5 5 9t12 1l978 -423q8 -8 8 -11l-2 -47q2 -3 -6 -7l-978 -424q-7 -3 -12 1.5t-5 9.5z" />
<glyph unicode="?" horiz-adv-x="1042" d="M269 1322q0 9 6 12q108 64 209 98.5t221 34.5q179 0 283 -86.5t104 -224.5q0 -51 -12.5 -98t-32.5 -86.5t-58.5 -81t-75 -73.5t-99 -75t-114.5 -75.5t-135 -82.5l-38 -205q-2 -6 -7 -11.5t-9 -5.5h-41q-10 0 -10 17l39 223q2 21 30 41q79 46 130.5 77t114.5 73.5 t101.5 78.5t74.5 79t52 88.5t16 93.5q0 128 -83.5 197.5t-237.5 69.5q-102 0 -203.5 -32t-181.5 -89q-8 -4 -12 -4q-8 0 -8 6l-21 32q-2 2 -2 9zM354 43q0 2 1 6.5t1 6.5q6 34 33 58t61 24q30 0 49.5 -19t19.5 -48q0 -38 -29.5 -67t-67.5 -29q-30 0 -49 20t-19 48z" />
<glyph unicode="@" horiz-adv-x="2065" d="M186 490q0 219 78 409.5t212 322t316 207t385 75.5q241 0 428 -94t293.5 -274t106.5 -420q0 -169 -58.5 -318.5t-168.5 -243.5t-247 -94q-80 0 -126 61.5t-46 174.5q0 44 5 70l-14 3q-86 -157 -191.5 -233t-240.5 -76q-143 0 -227.5 105t-84.5 295q0 78 19 163t60 167.5 t97.5 147.5t139 105.5t176.5 40.5q198 0 348 -213l27 171q1 7 6.5 12t8.5 5h36q5 0 10 -5t5 -12l-110 -620q-10 -62 -10 -116q0 -87 31.5 -133.5t90.5 -46.5q93 0 170.5 53t125.5 139.5t73.5 192t25.5 215.5q0 204 -93.5 365.5t-268.5 254.5t-403 93q-265 0 -475.5 -127.5 t-324.5 -342t-114 -470.5q0 -195 64.5 -350.5t180.5 -256.5t274 -154.5t347 -53.5q119 0 229 19t175.5 41.5t160.5 60.5q1 0 3 1.5t3 1.5q11 0 15 -9l10 -30q0 -1 1 -3.5t1 -3.5q0 -11 -10 -14q-305 -129 -590 -129q-214 0 -390.5 64.5t-295.5 179t-184 275t-65 352.5z M677 453q0 -158 74.5 -242.5t197.5 -84.5q121 0 229 107.5t169.5 260t65.5 298.5q-129 232 -312 232q-110 0 -208 -78.5t-157 -211t-59 -281.5z" />
<glyph unicode="A" horiz-adv-x="1360" d="M-43 10q0 2 4 10l860 1405q12 16 29 16h42q7 0 15 -5t9 -11l367 -1411q0 -14 -15 -14h-35q-6 0 -13 5.5t-8 12.5l-97 387h-844l-236 -387q-11 -18 -25 -18h-41q-12 0 -12 10zM306 462h795l-170 659q-14 53 -29 119t-23 105l-8 41h-8q-87 -151 -156 -265z" />
<glyph unicode="B" horiz-adv-x="1372" d="M128 14l249 1415q4 12 16 12h575q152 0 242.5 -80.5t90.5 -206.5q0 -128 -88.5 -240t-221.5 -142l-2 -12q126 -17 193 -101.5t67 -196.5q0 -71 -21 -137.5t-66 -126t-109.5 -103t-157.5 -69.5t-204 -26h-551q-12 0 -12 14zM201 60h470q106 0 195.5 22.5t161.5 70 t112.5 127.5t40.5 186q0 135 -103.5 198.5t-285.5 63.5h-474zM329 788h467q181 0 308 100.5t127 257.5q0 109 -73.5 171.5t-212.5 62.5h-513z" />
<glyph unicode="C" horiz-adv-x="1439" d="M168 573q0 232 112.5 437.5t309 331t426.5 125.5q150 0 276.5 -54.5t205.5 -151.5q2 -2 2 -8q0 -2 -1 -4.5t-1 -3.5l-31 -27q-5 -4 -13 -4q-4 0 -8 4q-76 88 -188 135t-244 47q-116 0 -230 -38.5t-212 -112.5t-173 -173t-118 -228.5t-43 -270.5q0 -244 144.5 -390 t381.5 -146q131 0 261.5 49.5t240.5 138.5q2 2 9 2q2 0 6.5 -1t5.5 -1l24 -30q2 -2 2 -9q0 -8 -4 -12q-113 -94 -256 -148.5t-291 -54.5q-138 0 -250.5 46t-187.5 125.5t-115.5 189t-40.5 237.5z" />
<glyph unicode="D" horiz-adv-x="1559" d="M128 12l249 1417q4 12 16 12h482q301 0 474 -143.5t173 -409.5q0 -210 -70.5 -380.5t-192.5 -280t-282.5 -168.5t-343.5 -59h-493q-12 0 -12 12zM201 60h434q170 0 318.5 56t259.5 158.5t175 257.5t64 343q0 242 -151 373.5t-424 131.5h-445z" />
<glyph unicode="E" horiz-adv-x="1292" d="M128 14l249 1415q4 12 16 12h947q12 0 12 -12l-6 -35q0 -6 -5 -10t-11 -4h-898l-107 -610h792q12 0 12 -10l-6 -36q0 -6 -5 -10.5t-11 -4.5h-793l-113 -649h897q13 0 13 -11l-6 -35q-4 -14 -17 -14h-948q-12 0 -12 14z" />
<glyph unicode="F" horiz-adv-x="1212" d="M128 14l249 1415q4 12 16 12h947q12 0 12 -12l-6 -35q0 -6 -5 -10t-11 -4h-898l-107 -610h792q12 0 12 -10l-6 -36q0 -6 -5 -10.5t-11 -4.5h-793l-122 -695q-4 -14 -14 -14h-38q-12 0 -12 14z" />
<glyph unicode="G" horiz-adv-x="1509" d="M168 575q0 232 112.5 437t309 330t426.5 125q151 0 277 -53.5t207 -149.5q2 -3 2 -7t-4 -12l-31 -27q-5 -4 -13 -4q-4 0 -8 4q-76 88 -188 135t-244 47q-145 0 -285 -61t-248.5 -166.5t-175.5 -259.5t-67 -327q0 -247 149 -396t397 -149q269 0 509 178l71 399h-435 q-11 0 -11 15l6 33q4 13 15 13h484q12 0 12 -13l-81 -465q-4 -21 -18 -31q-277 -195 -550 -195q-282 0 -450 167t-168 433z" />
<glyph unicode="H" horiz-adv-x="1542" d="M128 14l249 1415q4 12 16 12h37q10 0 10 -12l-115 -655h1039l115 655q4 12 19 12h35q10 0 10 -12l-248 -1415q-4 -14 -14 -14h-36q-14 0 -14 14l121 700h-1038l-122 -700q-4 -14 -14 -14h-38q-12 0 -12 14z" />
<glyph unicode="I" horiz-adv-x="440" d="M128 14l249 1415q4 12 16 12h37q10 0 10 -12l-248 -1415q-4 -14 -14 -14h-38q-12 0 -12 14z" />
<glyph unicode="J" horiz-adv-x="898" d="M-29 95q0 8 2 10l37 29q4 4 8 4q5 0 13 -4q37 -32 59 -48t62 -30.5t88 -14.5q165 0 283 109.5t150 281.5l175 997q4 12 19 12h37q10 0 10 -12l-178 -1009q-34 -198 -171 -321.5t-323 -123.5q-76 0 -147 28.5t-122 85.5q-2 2 -2 6z" />
<glyph unicode="K" horiz-adv-x="1304" d="M128 14l249 1415q4 12 16 12h37q10 0 10 -12l-144 -827l1072 829q10 10 26 10h66q7 0 7 -6t-5 -8l-827 -643l598 -766q4 -4 4 -6q0 -4 -5 -8t-10 -4h-43q-10 0 -23 8l-570 736l-307 -231l-87 -499q-4 -14 -14 -14h-38q-12 0 -12 14z" />
<glyph unicode="L" horiz-adv-x="1147" d="M128 14l249 1415q4 12 16 12h37q10 0 10 -12l-239 -1369h867q10 0 10 -13l-6 -35q-4 -12 -15 -12h-917q-12 0 -12 14z" />
<glyph unicode="M" horiz-adv-x="1790" d="M104 8q0 2 1 4l302 1417q4 12 15 12h46q7 0 15 -5t9 -11l404 -1048l765 1046q15 18 33 18h56q12 0 12 -12l-196 -1417q0 -4 -5 -8t-10 -4h-39q-12 0 -12 14l142 1014q16 128 46 296h-20q-66 -90 -335.5 -460.5t-405.5 -553.5q-17 -14 -37 -14h-9q-24 0 -31 14l-386 1014 h-20q-10 -55 -33 -172t-24 -124l-215 -1012q-6 -16 -14 -16h-42q-12 0 -12 8z" />
<glyph unicode="N" horiz-adv-x="1526" d="M128 14l249 1415q4 12 16 12h31q13 0 16 -12l776 -1313h19q5 26 17.5 111.5t26.5 165.5l181 1036q4 12 17 12h39q10 0 10 -12l-247 -1415q-4 -14 -15 -14h-38q-8 0 -20 8l-774 1316h-16q-4 -65 -39 -270l-185 -1040q-4 -14 -14 -14h-38q-12 0 -12 14z" />
<glyph unicode="O" horiz-adv-x="1648" d="M168 573q0 232 112.5 437.5t309 331t426.5 125.5q136 0 248.5 -46t187.5 -126t116 -189.5t41 -236.5q0 -174 -67 -337.5t-180.5 -286t-271 -196.5t-328.5 -74q-138 0 -250.5 46t-187.5 125.5t-115.5 189t-40.5 237.5zM238 579q0 -245 144.5 -391.5t381.5 -146.5 q145 0 285.5 62t249.5 168.5t175.5 262.5t66.5 331q0 242 -145.5 388.5t-381.5 146.5q-146 0 -286 -61.5t-248.5 -167.5t-175 -262t-66.5 -330z" />
<glyph unicode="P" horiz-adv-x="1329" d="M128 14l249 1415q4 12 16 12h513q206 0 326 -97t120 -262q0 -153 -77 -271t-210.5 -181t-300.5 -63h-474l-98 -553q-4 -14 -14 -14h-38q-12 0 -12 14zM300 629h478q136 0 251 54.5t184.5 156t69.5 230.5q0 141 -98.5 225.5t-266.5 84.5h-486z" />
<glyph unicode="Q" horiz-adv-x="1648" d="M168 573q0 232 112.5 437.5t309 331t426.5 125.5q136 0 248.5 -46t187.5 -126t116 -189.5t41 -236.5q0 -179 -68 -344.5t-191 -291.5l140 -217q0 -1 1 -3t1 -3q0 -10 -11 -10h-44q-12 0 -26 18l-110 168q-112 -100 -250.5 -155.5t-288.5 -55.5q-138 0 -250.5 46 t-187.5 125.5t-115.5 189t-40.5 237.5zM238 579q0 -245 144.5 -391.5t381.5 -146.5q135 0 265.5 51t236.5 146l-226 339q0 5 5 10t9 5h47q7 0 20 -17l188 -287q109 113 170.5 260t61.5 317q0 242 -145.5 388.5t-381.5 146.5q-146 0 -286 -61.5t-248.5 -167.5t-175 -262 t-66.5 -330z" />
<glyph unicode="R" horiz-adv-x="1389" d="M128 14l249 1415q4 12 16 12h519q205 0 322.5 -98.5t117.5 -264.5q0 -203 -138 -338t-360 -167l354 -555q2 -2 2 -8q0 -10 -12 -10h-44q-15 0 -27 16l-349 551h-488l-98 -553q-4 -14 -14 -14h-38q-12 0 -12 14zM300 629h480q135 0 249.5 55.5t184 158t69.5 231.5 q0 140 -100.5 223t-268.5 83h-482z" />
<glyph unicode="S" horiz-adv-x="1246" d="M81 152q0 4 4 8l29 30q7 7 12 7q4 0 6 -2q174 -154 418 -154q225 0 372.5 109t147.5 282q0 114 -102.5 180t-340.5 108q-176 31 -274 117.5t-98 210.5q0 95 45 175t121.5 132.5t175 82t204.5 29.5q140 0 260 -41.5t186 -124.5q4 -4 4 -12q0 -9 -8 -14l-23 -20 q-6 -6 -12 -6q-7 0 -10 8q-74 73 -170.5 108t-231.5 35q-201 0 -334 -99.5t-133 -254.5q0 -197 354 -262q231 -45 344.5 -127.5t113.5 -220.5t-81 -244t-216 -161.5t-300 -55.5q-142 0 -260.5 43t-196.5 124q-6 6 -6 10z" />
<glyph unicode="T" horiz-adv-x="1188" d="M199 1394l6 35q4 12 12 12h1131q13 0 13 -12l-7 -35q0 -6 -5 -10t-11 -4h-529l-240 -1366q-3 -14 -15 -14h-39q-12 0 -12 14l239 1366h-535q-8 0 -8 14z" />
<glyph unicode="U" horiz-adv-x="1561" d="M209 476q0 65 12 140l143 813q4 12 17 12h37q10 0 10 -12l-138 -792q-13 -80 -13 -143q0 -208 114.5 -330.5t328.5 -122.5q251 0 426.5 166t223.5 430l140 792q4 12 16 12h37q12 0 12 -12l-144 -813q-51 -287 -249 -464t-464 -177q-235 0 -372 135.5t-137 365.5z" />
<glyph unicode="V" horiz-adv-x="1338" d="M199 1427q0 14 10 14h39q14 0 17 -14l287 -1107q14 -48 25 -94.5t16.5 -73.5t10.5 -52.5t6 -30.5h8q7 10 22 36.5t49.5 85t78.5 129.5l676 1107q8 14 20 14h44q10 0 10 -10q0 -6 -2 -8l-867 -1407q-12 -16 -25 -16h-36q-6 0 -13 5t-8 11z" />
<glyph unicode="W" horiz-adv-x="1770" d="M259 16l14 1409q0 7 4.5 11.5t8.5 4.5h32q6 0 11.5 -4.5t5.5 -11.5l-10 -1013q0 -40 -7 -323h13l652 1092q10 17 28 17h41q17 0 20 -17l268 -1092h12q22 72 44.5 139.5t41 119t22.5 64.5l346 1013q6 16 20 16h37q11 0 11 -12v-4l-484 -1409q-6 -16 -20 -16h-54 q-17 0 -21 16l-273 1117l-666 -1117q-13 -16 -23 -16h-58q-16 0 -16 16z" />
<glyph unicode="X" horiz-adv-x="1279" d="M-49 10q0 9 6 15l709 713l-443 683q-2 2 -2 6q0 6 4.5 10t9.5 4h47q15 0 22 -14l405 -639l635 639q14 14 28 14h53q10 0 10 -10q0 -6 -4 -10l-685 -685l462 -711q2 -2 2 -9q0 -6 -4 -11t-10 -5h-40q-9 0 -29 20l-424 665l-662 -665q-20 -20 -33 -20h-47q-10 0 -10 10z " />
<glyph unicode="Y" horiz-adv-x="1244" d="M199 1429q0 12 10 12h43q13 0 19 -14l400 -776l671 776q8 14 22 14h53q8 0 8 -8q0 -6 -4 -10l-724 -833l-101 -576q-4 -14 -17 -14h-37q-13 0 -13 14l102 576l-430 833q-2 2 -2 6z" />
<glyph unicode="Z" horiz-adv-x="1319" d="M43 14l4 27q2 8 20 30l1218 1309h-967q-10 0 -10 14l6 35q4 12 15 12h1041q12 0 12 -12q-4 -20 -4 -26q-2 -10 -12 -25l-1224 -1318h1008q13 0 13 -11l-7 -35q-3 -14 -17 -14h-1085q-11 0 -11 14z" />
<glyph unicode="[" horiz-adv-x="610" d="M33 -399l340 1919q5 15 16 15h327q5 0 9.5 -4.5t4.5 -10.5l-6 -32q0 -6 -6.5 -10.5t-12.5 -4.5h-277l-321 -1824h278q12 0 12 -15l-6 -33q0 -6 -6 -10.5t-12 -4.5h-328q-12 0 -12 15z" />
<glyph unicode="\" horiz-adv-x="642" d="M213 1520q0 15 8 15h29q18 0 21 -19l273 -1668q0 -6 -4 -11t-9 -5h-30q-6 0 -11.5 4.5t-5.5 11.5z" />
<glyph unicode="]" horiz-adv-x="610" d="M-49 -399l6 33q3 15 20 15h278l320 1824h-277q-14 0 -14 15l6 32q5 15 18 15h327q4 0 8 -4t4 -9l-339 -1921q0 -6 -5 -10.5t-11 -4.5h-327q-14 0 -14 15z" />
<glyph unicode="^" horiz-adv-x="1202" d="M197 766q0 6 4 10l551 722q12 18 34 18h51q8 0 16.5 -5.5t9.5 -12.5l302 -722q0 -16 -19 -16h-37q-15 0 -21 16l-283 695l-528 -695q-13 -16 -31 -16h-37q-12 0 -12 6z" />
<glyph unicode="_" horiz-adv-x="1135" d="M-166 -397l4 33h1204l-4 -33h-1204z" />
<glyph unicode="`" horiz-adv-x="880" d="M446 1543q0 12 18 12h69q16 0 19 -14l68 -232q0 -6 -4 -11t-10 -5h-12q-7 0 -12 3.5t-5 6.5l-129 232q-2 2 -2 8z" />
<glyph unicode="a" horiz-adv-x="1089" d="M77 225q0 70 21.5 126.5t57.5 96t90.5 68.5t111 46t129 27t135.5 13.5t138 3.5h140l10 63q10 65 10 109q0 120 -67 182t-218 62q-21 0 -41 -1t-41 -4t-36 -5t-35.5 -7.5t-31.5 -8t-31.5 -9t-26 -8.5t-26.5 -9t-23 -8q-4 -2 -8 -2q-6 0 -6 6l-9 31q-2 2 -2 6q0 11 11 15 q81 34 157 50t187 16q63 0 118 -17t100.5 -51t71.5 -93.5t26 -138.5q0 -52 -8 -99l-118 -671q-5 -14 -17 -14h-33q-12 0 -12 14l30 176h-16q-70 -90 -190.5 -152.5t-247.5 -62.5q-134 0 -217 71t-83 179zM144 231q0 -92 68 -142t193 -50q62 0 135.5 26.5t140 71t117.5 112 t65 142.5l29 161h-122q-89 0 -164 -6t-148 -19t-128 -37t-98 -59t-65.5 -85.5t-22.5 -114.5z" />
<glyph unicode="b" horiz-adv-x="1222" d="M107 12l266 1508q4 15 14 15h41q6 0 6 -13l-99 -560l-29 -155h19q77 117 202 197t280 80q159 0 262.5 -105t103.5 -298q0 -130 -36 -244.5t-97 -197.5t-140 -144t-166.5 -90.5t-174.5 -29.5q-121 0 -203.5 31.5t-173.5 96.5l-14 -91q-4 -12 -16 -12h-34q-11 0 -11 12z M197 176q39 -31 53.5 -42t52.5 -34.5t68 -33t77.5 -18.5t101.5 -9q104 0 202.5 43.5t177 122t126 200t47.5 266.5q0 167 -80.5 259t-236.5 92q-78 0 -161 -35t-158 -98t-132 -162t-78 -216z" />
<glyph unicode="c" horiz-adv-x="1008" d="M114 391q0 161 48.5 294.5t132 219.5t192 132.5t231.5 46.5q93 0 183.5 -36.5t157.5 -96.5q0 -1 1.5 -5.5t1.5 -6.5q0 -8 -3 -10l-23 -25q-6 -6 -12 -6t-8 2q-150 122 -298 122q-107 0 -203.5 -42.5t-170.5 -119.5t-118 -197t-44 -264q0 -171 92 -265.5t259 -94.5 q84 0 177 35t173 92q2 2 9 2t10 -6l16 -34q3 -10 -8 -18q-85 -64 -184 -99.5t-195 -35.5q-193 0 -305 109.5t-112 306.5z" />
<glyph unicode="d" horiz-adv-x="1220" d="M107 371q0 162 54.5 300t143 226.5t197.5 137.5t222 49q118 0 198.5 -31t173.5 -96l100 565q4 13 16 13h35q10 0 10 -13l-264 -1508q-3 -14 -14 -14h-32q-12 0 -12 14l42 238h-17q-79 -119 -203 -198t-283 -79q-77 0 -142.5 24.5t-116 72.5t-79.5 125t-29 174zM178 389 q0 -167 80 -258.5t236 -91.5q63 0 129 21.5t130.5 65t118.5 103t94.5 142.5t57.5 177l60 335q-46 37 -67 53t-66.5 41t-97.5 35t-119 10q-105 0 -204.5 -44t-178 -123t-126 -201t-47.5 -265z" />
<glyph unicode="e" horiz-adv-x="1157" d="M116 407q0 150 51 278.5t135.5 214.5t195 135t228.5 49q180 0 277.5 -99.5t97.5 -285.5q0 -51 -11 -130q-3 -17 -11 -27.5t-15 -10.5h-869q-11 -68 -11 -105q0 -181 108.5 -284t291.5 -103q159 0 330 68q10 5 15 -4q10 -39 10 -41q0 -17 -12 -23q-44 -24 -161 -44 t-199 -20q-207 0 -329 117t-122 315zM209 590h817q8 47 8 101q0 158 -78.5 244.5t-229.5 86.5q-187 0 -324 -114.5t-193 -317.5z" />
<glyph unicode="f" horiz-adv-x="665" d="M152 1014l6 30q0 6 4.5 10.5t9.5 4.5h179l26 153q27 162 134 252.5t279 90.5q50 0 107.5 -7.5t83.5 -19.5q14 -6 14 -12t-4 -14l-12 -23q-7 -10 -22 -10q-76 23 -181 23q-136 0 -222.5 -70t-111.5 -208l-26 -155h366q5 0 8.5 -4.5t3.5 -10.5l-6 -30q-2 -5 -7 -10t-9 -5 h-367l-174 -985q-3 -14 -14 -14h-35q-14 0 -14 14l173 985h-179q-10 0 -10 15z" />
<glyph unicode="g" horiz-adv-x="1204" d="M83 -357.5q0 8.5 4 12.5l16 31q3 8 15 8q6 0 10 -2q55 -26 75 -34t71.5 -17.5t124.5 -9.5q107 0 216 45t194 134.5t105 201.5l21 122l36 182h-20q-68 -117 -190.5 -196t-276.5 -79q-162 0 -263 106.5t-101 288.5q0 142 46.5 264.5t124 205.5t178 130.5t208.5 47.5 q126 0 214.5 -39t188.5 -116l21 117q0 5 5 9t11 4h33q10 0 10 -13l-179 -1021q-25 -136 -111.5 -241.5t-211 -161.5t-263.5 -56q-110 0 -171.5 14.5t-132.5 50.5q-8 3 -8 11.5zM186 438q0 -157 81.5 -246t235.5 -89q80 0 162.5 36t154.5 99.5t126 158t72 203.5l44 252 q-42 37 -58 50t-58.5 43t-74.5 42t-81.5 23.5t-102.5 11.5q-100 0 -191 -40.5t-159.5 -113.5t-109.5 -184.5t-41 -245.5z" />
<glyph unicode="h" horiz-adv-x="1161" d="M107 14l266 1508q4 13 16 13h37q8 0 8 -13l-95 -539l-25 -129h17q182 230 433 230q139 0 218.5 -79t79.5 -219q0 -47 -10 -103l-117 -669q-4 -14 -15 -14h-37q-10 0 -10 14l112 637q10 69 10 117q0 129 -60 191.5t-199 62.5q-77 0 -157 -36t-141 -91.5t-104 -124.5 t-55 -135l-109 -621q-4 -14 -12 -14h-38q-13 0 -13 14z" />
<glyph unicode="i" horiz-adv-x="398" d="M107 14l183 1032q0 5 5 9t11 4h35q10 0 10 -13l-181 -1032q-4 -14 -14 -14h-36q-13 0 -13 14zM333 1464q0 3 1 7t1 6q5 24 24.5 41t43.5 17q20 0 35 -15t15 -35q0 -29 -22 -48.5t-48 -19.5q-22 0 -36 12.5t-14 34.5z" />
<glyph unicode="j" horiz-adv-x="398" d="M-462 -397q0 4 4 12l16 25q5 11 26 11q74 -22 172 -22q128 0 218.5 72.5t114.5 207.5l201 1135q0 6 4.5 10.5t9.5 4.5h37q10 0 10 -15l-199 -1127q-29 -163 -132.5 -257t-269.5 -94q-77 0 -144.5 10t-67.5 27zM333 1464q0 3 1 7t1 6q5 24 24.5 41t43.5 17q22 0 36 -13.5 t14 -33.5q0 -31 -21.5 -51t-48.5 -20q-22 0 -36 12.5t-14 34.5z" />
<glyph unicode="k" horiz-adv-x="985" d="M107 14l266 1508q4 13 16 13h37q8 0 8 -13l-161 -922l-25 -122h17q-1 0 3.5 3.5t13.5 11.5t19 16t26 21.5t29 23.5l597 496q13 9 24 9h59q6 0 6 -7q0 -6 -4 -10l-503 -411l359 -619q0 -12 -13 -12h-39q-15 0 -21 12l-329 578l-259 -207l-63 -369q-4 -14 -12 -14h-38 q-13 0 -13 14z" />
<glyph unicode="l" horiz-adv-x="398" d="M107 14l266 1508q4 13 16 13h37q8 0 8 -13l-264 -1508q-4 -14 -12 -14h-38q-13 0 -13 14z" />
<glyph unicode="m" horiz-adv-x="1848" d="M107 14l183 1032q0 5 5.5 9t12.5 4h35q8 0 8 -13l-12 -65l-25 -127h17q81 108 177.5 169t232 61t204 -65.5t77.5 -201.5q83 126 199 196.5t248 70.5q139 0 210 -76t71 -209q0 -40 -11 -116l-117 -669q-4 -14 -15 -14h-35q-13 0 -13 14l113 637q12 72 12 131 q0 124 -53.5 182t-184.5 58q-75 0 -152 -36t-135.5 -92t-100 -124.5t-53.5 -134.5l-109 -621q-3 -14 -15 -14h-35q-13 0 -13 14l112 637q12 72 12 131q0 124 -53 182t-182 58q-76 0 -153 -37t-136.5 -94.5t-101.5 -127.5t-54 -136l-107 -613q-4 -14 -12 -14h-36 q-15 0 -15 14z" />
<glyph unicode="n" horiz-adv-x="1161" d="M107 14l183 1032q0 5 5 9t11 4h37q8 0 8 -13l-12 -65l-25 -127h17q172 230 429 230q144 0 224 -78t80 -218q0 -37 -12 -105l-117 -669q-4 -14 -15 -14h-37q-10 0 -10 14l112 637q12 68 12 127q0 127 -61 185.5t-200 58.5q-77 0 -157 -36t-141 -91.5t-104 -124.5t-55 -135 l-109 -621q-4 -14 -12 -14h-38q-13 0 -13 14z" />
<glyph unicode="o" horiz-adv-x="1222" d="M116 414q0 143 51.5 269t137 213t197.5 137.5t232 50.5q193 0 313 -122.5t120 -320.5q0 -142 -51.5 -268t-137.5 -212t-198 -136t-232 -50q-192 0 -312 121t-120 318zM182 418q0 -176 100 -277.5t268 -101.5q106 0 204.5 43t175 119.5t122.5 191t46 248.5 q0 176 -98.5 278.5t-265.5 102.5q-104 0 -203 -44t-176.5 -121t-125 -192t-47.5 -247z" />
<glyph unicode="p" horiz-adv-x="1222" d="M33 -401l257 1445q0 6 4.5 10.5t9.5 4.5h41q6 0 6 -13l-16 -86q-27 -153 -29 -153h19q70 116 197.5 196.5t284.5 80.5q159 0 262.5 -104t103.5 -297q0 -161 -55 -298t-143.5 -224.5t-197 -136.5t-218.5 -49q-120 0 -200.5 31t-174.5 97l-89 -504q0 -4 -4.5 -8.5 t-9.5 -4.5h-38q-10 0 -10 13zM197 176q39 -31 53.5 -42t52.5 -34.5t68 -33t77.5 -18.5t101.5 -9q101 0 199.5 45t177.5 125t127.5 200.5t48.5 261.5q0 167 -80.5 259t-236.5 92q-78 0 -161 -35t-158 -97t-132 -161t-78 -216z" />
<glyph unicode="q" horiz-adv-x="1220" d="M107 377q0 129 35.5 243.5t96 198t139 144t165.5 91t175 30.5q119 0 205.5 -31.5t177.5 -95.5l16 89q0 5 5 9t11 4h32q10 0 10 -13l-257 -1445q0 -6 -4.5 -10.5t-9.5 -4.5h-39q-9 0 -9 13l89 500q6 35 13.5 72.5t12.5 59t6 21.5h-20q-71 -116 -201.5 -196.5t-285.5 -80.5 q-159 0 -261 105t-102 297zM178 389q0 -166 83 -258t240 -92q77 0 159 35.5t156 99t130.5 161.5t77.5 213l60 335q-80 66 -119 88q-93 51 -227 51q-105 0 -205 -44t-179 -123t-127.5 -201t-48.5 -265z" />
<glyph unicode="r" horiz-adv-x="760" d="M107 14l183 1032q0 5 5 9t11 4h37q8 0 8 -13l-20 -115l-25 -128h12q76 128 192 204.5t254 76.5q66 0 122 -20q10 -8 10 -20l-17 -47q0 -10 -14 -10q-78 31 -139 31q-161 0 -298 -156t-178 -386l-80 -462q-4 -14 -12 -14h-38q-13 0 -13 14z" />
<glyph unicode="s" horiz-adv-x="920" d="M42 54q0 2 1 4l21 37q5 8 13 8t10 -2q135 -62 284 -62q158 0 265.5 78.5t107.5 190.5q0 34 -15 62t-36 46.5t-66 38t-81 31t-104 31.5q-260 76 -260 245q0 138 115 230t289 92q185 0 316 -66q6 -6 6 -17l-20 -33q-6 -6 -15 -6q-6 0 -8 2q-146 58 -273 58 q-151 0 -246.5 -72.5t-95.5 -181.5q0 -33 14 -59.5t33.5 -45t54 -36t64 -28t74.5 -24.5q145 -47 194 -71q130 -73 133 -188q0 -94 -60 -172.5t-163 -123.5t-223 -45q-108 0 -178 16.5t-144 51.5q-7 4 -7 11z" />
<glyph unicode="t" horiz-adv-x="756" d="M152 1014l6 30q0 6 4.5 10.5t9.5 4.5h179l54 305q0 3 5.5 6.5t11.5 3.5h38q10 0 10 -10l-54 -305h368q5 0 8.5 -4.5t3.5 -10.5l-6 -30q-2 -5 -7 -10t-9 -5h-369l-123 -695q-9 -43 -9 -77q0 -188 205 -188q82 0 157 34q1 0 3 1t3 1q9 0 14 -11l9 -31q0 -1 1 -3t1 -3 q0 -10 -11 -15q-106 -37 -185 -37q-130 0 -195.5 61.5t-65.5 174.5q0 44 8 85l124 703h-179q-10 0 -10 15z" />
<glyph unicode="u" horiz-adv-x="1161" d="M162 261q0 64 10 116l118 667q0 6 4.5 10.5t9.5 4.5h37q10 0 10 -15l-113 -634q-13 -74 -13 -122q0 -126 61 -187.5t200 -61.5q78 0 157.5 36t141 91.5t105 125t55.5 134.5l109 618q0 6 4.5 10.5t9.5 4.5h37q5 0 8.5 -4.5t3.5 -10.5l-182 -1032q-4 -12 -17 -12h-37 q-8 0 -8 12l10 65l27 130h-14q-75 -100 -187 -166t-245 -66q-147 0 -224.5 73.5t-77.5 212.5z" />
<glyph unicode="v" horiz-adv-x="983" d="M178 1048q0 11 12 11h39q9 0 13 -13l153 -726q15 -72 24 -133t11 -86l2 -24h12q34 82 125 243l410 726q4 13 16 13h47q8 0 8 -9q0 -1 -1 -3t-1 -3l-578 -1032q-8 -12 -17 -12h-46q-5 0 -9.5 4t-4.5 8z" />
<glyph unicode="w" horiz-adv-x="1494" d="M201 1046q0 13 16 13h31q13 0 17 -15l49 -724q6 -89 6 -258h13l480 925q8 16 22 16h44q11 0 19 -16l156 -925h14q43 130 97 258l304 724q4 15 21 15h36q13 0 13 -15l-434 -1028q-3 -6 -10.5 -11t-12.5 -5h-62q-5 0 -12.5 6t-8.5 12l-122 740q-7 43 -13 87.5t-8 67.5 l-2 22h-12q-33 -81 -82 -177l-387 -740q-3 -6 -10.5 -12t-13.5 -6h-61q-5 0 -12 5t-7 11z" />
<glyph unicode="x" horiz-adv-x="934" d="M-6 10q0 4 6 10l466 511l-282 505q-2 2 -2 8q0 5 4.5 10t8.5 5h40q11 0 20 -19l173 -316l75 -136h10q48 61 116 136l289 316q15 19 29 19h42q8 0 8 -11q0 -8 -4 -12l-460 -505l282 -506q2 -4 2 -11q0 -14 -10 -14h-37q-15 0 -28 20l-171 313l-74 141h-11q-1 0 -16.5 -19 t-45 -54.5t-58.5 -67.5l-287 -313q-17 -20 -30 -20h-43q-12 0 -12 10z" />
<glyph unicode="y" horiz-adv-x="998" d="M174 -405q0 2 4 10l219 389l-219 1050q0 15 14 15h31q15 0 19 -17l151 -724l43 -239h17q59 119 126 237l412 726q10 17 25 17h41q9 0 9 -7q0 -4 -4 -12l-818 -1435q-10 -19 -25 -19h-35q-10 0 -10 9z" />
<glyph unicode="z" horiz-adv-x="998" d="M16 14l4 31q1 2 13 22l898 932h-708q-10 0 -10 17l6 30q0 4 4.5 8.5t9.5 4.5h774q13 0 13 -13l-6 -35q-2 -9 -13 -20l-896 -933h747q15 0 15 -13l-4 -31q-5 -14 -19 -14h-817q-11 0 -11 14z" />
<glyph unicode="{" horiz-adv-x="750" d="M56 550l6 31q0 15 9 15q102 0 204 110.5t135 302.5l30 179q32 183 115 265t248 82h53q13 0 13 -13l-4 -30q-1 -6 -7.5 -10.5t-11.5 -4.5h-21q-158 0 -226 -60.5t-96 -224.5l-31 -181q-28 -165 -113.5 -286t-206.5 -156l-4 -10q85 -35 129.5 -124.5t44.5 -209.5 q0 -52 -10 -118l-30 -176q-13 -73 -13 -115q0 -98 51 -134t183 -36h20q12 0 12 -12l-6 -33q0 -6 -5.5 -10.5t-10.5 -4.5h-49q-134 0 -195.5 56.5t-61.5 171.5q0 51 12 119l31 174q11 69 11 118q0 142 -60 227.5t-137 87.5z" />
<glyph unicode="|" horiz-adv-x="464" d="M263 -399v1919q0 5 4 10t10 5h37q4 0 8.5 -5t4.5 -10v-1919q0 -6 -4 -10.5t-9 -4.5h-37q-14 0 -14 15z" />
<glyph unicode="}" horiz-adv-x="750" d="M-45 -401l4 30q1 6 7 10.5t11 4.5h21q159 0 226.5 60.5t95.5 224.5l31 181q28 164 114 285.5t208 156.5l2 11q-85 34 -129.5 123.5t-44.5 209.5q0 52 10 118l31 176q12 68 12 115q0 98 -51 134t-183 36h-20q-12 0 -12 13l6 32q0 6 5.5 10.5t10.5 4.5h50 q133 0 194.5 -56.5t61.5 -171.5q0 -51 -12 -119l-31 -174q-10 -69 -10 -118q0 -142 59.5 -227.5t137.5 -87.5l8 -10l-6 -31q0 -15 -10 -15q-102 0 -203.5 -110.5t-134.5 -302.5l-31 -179q-32 -182 -115 -264.5t-248 -82.5h-53q-12 0 -12 13z" />
<glyph unicode="~" horiz-adv-x="1403" d="M134 525q44 145 144.5 240.5t215.5 95.5q64 0 126.5 -27.5t113.5 -67t99 -79t100 -66.5t99 -27q97 0 181 76t123 193q6 16 18 16h40q13 0 9 -12q-44 -144 -146.5 -240t-216.5 -96q-64 0 -127 28t-113.5 68t-98 79t-99 67t-99.5 28q-95 0 -178 -77.5t-124 -194.5 q-6 -16 -23 -16h-38q-6 0 -6 12z" />
<glyph unicode="&#xa1;" horiz-adv-x="537" d="M77 -401l71 405l127 612q4 15 15 15h8q5 0 9.5 -4.5t4.5 -10.5l-87 -610l-71 -407q0 -5 -6 -9t-12 -4h-49q-10 0 -10 13zM279 989q0 37 30.5 66t67.5 29q29 0 48 -19t19 -47q0 -2 -1 -7.5t-1 -7.5q-6 -33 -33.5 -57t-61.5 -24q-29 0 -48.5 19.5t-19.5 47.5z" />
<glyph unicode="&#xa2;" horiz-adv-x="1004" d="M142 584q0 155 46 284t125 215t182.5 135.5t220.5 56.5l26 154q4 12 18 12h36q13 0 13 -12l-27 -154q171 -13 304 -131q4 -4 4 -11q0 -4 -4 -8l-20 -24q-8 -7 -18 -7q-1 0 -3 1t-3 1q-58 54 -138 86t-164 32q-107 0 -203 -43.5t-169 -121.5t-116 -196.5t-43 -258.5 q0 -361 358 -361q155 0 341 127q1 0 3 1t3 1q5 0 17 -6l14 -34q0 -14 -8 -18q-174 -120 -349 -134l-27 -156q-3 -14 -17 -14h-37q-13 0 -13 14l27 156q-179 12 -279 119.5t-100 294.5z" />
<glyph unicode="&#xa3;" horiz-adv-x="1141" d="M41 87q0 16 19 20q80 27 145.5 110.5t103.5 201t49 254.5h-182q-12 0 -12 16l6 35q4 12 16 12h176q1 112 3.5 173.5t5 83t10.5 64.5q30 175 167 292.5t319 117.5q208 0 306 -95q2 -2 2 -8q0 -10 -4 -14l-19 -16q-8 -8 -17 -8q-6 0 -10 4q-80 70 -256 70 q-162 0 -275.5 -93.5t-140.5 -244.5q-23 -140 -23 -326h381q12 0 12 -12l-6 -35q-3 -16 -16 -16h-369q-1 -6 -6.5 -41.5t-10.5 -66.5t-17.5 -80.5t-27.5 -92t-41 -93.5t-57 -92t-75.5 -80t-97.5 -65l2 -10q124 33 268 33q73 0 217 -25t223 -25q35 0 99.5 7t94.5 7 q11 0 11 -6v-35q0 -12 -15 -16q-22 -6 -94.5 -11.5t-128.5 -5.5q-55 0 -200.5 24t-228.5 24q-50 0 -145.5 -15.5t-132.5 -15.5q-13 0 -15 12z" />
<glyph unicode="&#xa4;" d="M227 275q-8 11 0 19l114 113q-103 121 -103 280q0 155 103 277l-112 112q-10 10 -2 18l28 27q10 10 20 0l112 -112q122 104 277 104q157 0 279 -104l111 112q11 10 20 2l27 -27q7 -10 0 -20l-112 -112q103 -122 103 -277q0 -159 -103 -280l112 -111q7 -11 0 -21l-25 -23 q-11 -7 -19 0l-114 110q-125 -103 -279 -103q-156 0 -277 103l-114 -112q-11 -7 -21 2zM300 686.5q0 -150.5 106.5 -257.5t257 -107t257.5 107t107 257.5t-107 257t-257.5 106.5t-257 -106.5t-106.5 -257z" />
<glyph unicode="&#xa5;" horiz-adv-x="1198" d="M97 482l6 37q0 4 5 8t10 4h480l10 59l-122 235h-316q-10 0 -10 14l6 36q4 13 14 13h273l-275 535q-2 2 -2 6q0 12 10 12h43q13 0 19 -14l399 -776l673 776q8 14 20 14h54q9 0 9 -8q0 -5 -5 -10l-467 -535h275q12 0 12 -13l-6 -36q-4 -14 -16 -14h-319l-202 -235l-11 -59 h480q12 0 12 -12l-6 -37q-3 -14 -19 -14h-480l-78 -454q-3 -14 -16 -14h-38q-12 0 -12 14l79 454h-481q-8 0 -8 14z" />
<glyph unicode="&#xa6;" horiz-adv-x="464" d="M263 -399v806q0 5 4 9t10 4h37q5 0 9 -4t4 -9v-806q0 -6 -4 -10.5t-9 -4.5h-37q-14 0 -14 15zM263 724v796q0 5 4 10t10 5h37q4 0 8.5 -5t4.5 -10v-796q0 -6 -4 -10.5t-9 -4.5h-37q-14 0 -14 15z" />
<glyph unicode="&#xa7;" horiz-adv-x="1044" d="M33 -296q0 6 4 10q32 29 36 29q2 0 14 -4q65 -49 145 -80.5t157 -31.5q158 0 272.5 77t114.5 201q0 85 -79 153.5t-253 156.5q-148 76 -219 154t-71 171q0 68 29 127.5t82 105t115.5 80.5t140.5 63q-135 82 -192.5 145t-57.5 143q0 150 129 250.5t328 100.5q94 0 187 -36 t163 -90q4 -4 4 -10t-4 -10l-30 -25q-4 -4 -8 -4t-8 4q-64 47 -145.5 78.5t-156.5 31.5q-105 0 -193.5 -33t-143 -97.5t-54.5 -147.5q0 -23 6.5 -44.5t16.5 -38.5t30.5 -37t36 -34t49.5 -35.5t55 -34.5t66 -40.5t72 -43.5q81 -51 127 -83.5t89 -73t61 -80.5t18 -87 q0 -66 -30 -124.5t-82.5 -104.5t-112.5 -81.5t-133 -64.5q127 -79 183.5 -143.5t56.5 -146.5q0 -147 -131 -250t-328 -103q-196 0 -352 128q-4 2 -4 10zM223 554q0 -51 25 -97t79 -87t88 -61.5t101 -56.5q18 -10 26 -14q161 69 256.5 153.5t95.5 179.5q0 44 -18.5 81.5 t-65.5 78t-94.5 71t-140.5 86.5q-163 -75 -257.5 -156t-94.5 -178z" />
<glyph unicode="&#xa8;" horiz-adv-x="916" d="M379 1396q0 31 25 54t58 23q23 0 39 -15t16 -39q0 -29 -25 -54t-54 -25q-26 0 -42.5 16t-16.5 40zM774 1396q0 32 26.5 54.5t53.5 22.5t43.5 -14.5t16.5 -37.5q0 -31 -24.5 -56t-58.5 -25q-23 0 -40 16.5t-17 39.5z" />
<glyph unicode="&#xa9;" horiz-adv-x="1776" d="M128 732q0 223 109.5 412.5t298.5 300t413.5 110.5t413.5 -110.5t299.5 -300t110.5 -412.5t-110.5 -412.5t-299.5 -300t-413.5 -110.5t-413.5 110.5t-298.5 300t-109.5 412.5zM192 732.5q0 -154.5 60 -295t161.5 -242.5t242 -162t294 -60t294.5 60t243 162t162 243 t60 294.5t-60 294t-162 242t-242.5 161.5t-295 60t-294.5 -60t-241.5 -161.5t-161.5 -241.5t-60 -294.5zM505 734q0 207 125 335.5t330 128.5q161 0 308 -116q6 -4 6.5 -11.5t-4.5 -11.5l-31 -29q-13 -14 -25 -2q-98 93 -254 93t-262 -108t-106 -279q0 -172 106 -279.5 t262 -107.5q67 0 138 25.5t120 69.5q12 9 25 -4l27 -31q9 -15 -2 -26q-128 -114 -308 -114q-205 0 -330 129.5t-125 337.5z" />
<glyph unicode="&#xaa;" horiz-adv-x="1089" d="M282 910q0 73 30.5 126.5t77.5 84.5t117 50t134.5 25t142.5 6h108l12 77q4 32 4 47q0 79 -53 123.5t-152 44.5q-121 0 -250 -53q-7 0 -17 5l-6 29q-2 1 -0.5 6.5t6.5 8.5q47 26 123 45.5t157 19.5q105 0 182 -58.5t77 -174.5q0 -29 -7 -77l-87 -495q-4 -14 -16 -14h-34 q-10 0 -10 14l23 131h-13q-63 -80 -136.5 -121.5t-179.5 -41.5q-105 0 -169 54t-64 138zM349 914q0 -132 180 -132q61 0 131.5 30.5t128.5 90.5t72 129l20 114h-78q-80 0 -143 -5.5t-123 -21t-100 -41t-64 -67t-24 -97.5z" />
<glyph unicode="&#xab;" horiz-adv-x="1212" d="M211 586q0 10 10 20l511 434q8 4 12 4t8 -4l22 -26q2 -2 2 -9q0 -8 -4 -10l-482 -409l332 -406v-8q0 -8 -4 -10l-24 -24q-4 -4 -10 -4q-5 0 -9 4l-358 433q-6 6 -6 15zM726 586q0 10 10 20l511 434q8 4 12.5 4t8.5 -4l21 -26q2 -2 2 -9q0 -8 -4 -10l-482 -409l332 -406 v-8q0 -8 -4 -10l-24 -24q-4 -4 -11 -4q-4 0 -8 4l-358 433q-6 6 -6 15z" />
<glyph unicode="&#xac;" d="M138 790v39q0 5 4.5 9t9.5 4h1025q6 0 10.5 -4t4.5 -9v-574q0 -4 -5 -7.5t-10 -3.5h-38q-4 0 -9 3.5t-5 7.5v521h-973q-6 0 -10 4t-4 10z" />
<glyph unicode="&#xad;" horiz-adv-x="675" d="M122 575l6 39q0 5 5 9t11 4h491q12 0 12 -13l-6 -39q-3 -14 -19 -14h-490q-10 0 -10 14z" />
<glyph unicode="&#xae;" horiz-adv-x="1776" d="M128 732q0 223 109.5 412.5t298.5 300t413.5 110.5t413.5 -110.5t299.5 -300t110.5 -412.5t-110.5 -412.5t-299.5 -300t-413.5 -110.5t-413.5 110.5t-298.5 300t-109.5 412.5zM192 732.5q0 -154.5 60 -295t161.5 -242.5t242 -162t294 -60t294.5 60t243 162t162 243 t60 294.5t-60 294t-162 242t-242.5 161.5t-295 60t-294.5 -60t-241.5 -161.5t-161.5 -241.5t-60 -294.5zM620 296v877q0 5 5.5 9t11.5 4h331q147 0 239 -78.5t92 -203.5q0 -93 -61 -167t-168 -117l260 -316q6 -7 2 -13.5t-16 -6.5h-61q-20 0 -33 16l-260 322h-257v-326 q0 -12 -14 -12h-54q-6 0 -11.5 4t-5.5 8zM705 701h286q102 0 160.5 53.5t58.5 149.5q0 94 -59 148.5t-160 54.5h-286v-406z" />
<glyph unicode="&#xaf;" horiz-adv-x="918" d="M339 1469l4 29q4 14 21 14h609q5 0 9.5 -4t4.5 -10l-4 -29q-1 -7 -8 -12t-13 -5h-608q-15 0 -15 17z" />
<glyph unicode="&#xb0;" horiz-adv-x="886" d="M188 1175q0 129 93 218.5t218 89.5q128 0 220 -90t92 -218q0 -127 -91.5 -217.5t-220.5 -90.5q-126 0 -218.5 89.5t-92.5 218.5zM255 1175q0 -103 71 -173.5t173 -70.5q105 0 176 70.5t71 173.5q0 105 -71 175.5t-176 70.5q-103 0 -173.5 -70.5t-70.5 -175.5z" />
<glyph unicode="&#xb1;" d="M138 14v38q0 5 4.5 8.5t11.5 3.5h1025q6 0 10.5 -3.5t4.5 -8.5v-38q0 -14 -15 -14h-1025q-16 0 -16 14zM140 760v39q0 4 4 8t10 4h481v480q0 12 14 12h38q10 0 10 -12v-480h482q6 0 10.5 -3.5t4.5 -8.5v-39q0 -6 -4.5 -10t-10.5 -4h-482v-479q0 -15 -10 -15h-38 q-14 0 -14 15v479h-481q-5 0 -9.5 4.5t-4.5 9.5z" />
<glyph unicode="&#xb2;" horiz-adv-x="632" d="M142 722l6 36q1 10 24 32l407 345q62 54 62 140q0 59 -38.5 94.5t-103.5 35.5q-57 0 -107.5 -31.5t-75.5 -80.5q-13 -22 -26 -18l-38 14q-6 3 -6 8q0 2 4 10q34 68 103 114t154 46q89 0 145.5 -52.5t56.5 -129.5q0 -129 -101 -211l-364 -304h368q8 0 8 -10l-6 -38 q-3 -13 -12 -13h-450q-10 0 -10 13z" />
<glyph unicode="&#xb3;" horiz-adv-x="608" d="M156 819q0 10 12 16l22 15q2 2 9 2q4 0 8 -4q17 -39 59.5 -63.5t91.5 -24.5q79 0 141 57t62 143q0 58 -40 93t-105 35h-39q-8 0 -8 10l8 41q0 3 4 7t8 4h31q67 0 116.5 43.5t49.5 109.5q0 46 -31.5 74t-82.5 28q-23 0 -42.5 -4.5t-32 -9.5t-25 -15t-18 -16t-14.5 -17 t-11 -13q-10 -13 -21 -10l-26 20q-5 3 -5 10q0 29 62 73t141 44q73 0 124 -46t51 -112q0 -89 -115 -182q87 -69 87 -172q0 -107 -84 -182.5t-189 -75.5q-81 0 -139.5 44.5t-58.5 77.5z" />
<glyph unicode="&#xb4;" horiz-adv-x="880" d="M604 1307q0 4 2 6l152 228q10 14 22 14h70q13 0 13 -8q0 -6 -7 -12l-209 -232q-10 -10 -18 -10h-13q-12 0 -12 14z" />
<glyph unicode="&#xb5;" horiz-adv-x="1143" d="M25 -399l257 1443q0 6 4.5 10.5t9.5 4.5h37q14 0 14 -15l-116 -651q-10 -63 -10 -105q0 -249 259 -249q78 0 157.5 36t141 91.5t105 125t55.5 134.5l109 618q0 6 5 10.5t9 4.5h39q5 0 8.5 -4.5t3.5 -10.5l-182 -1032q-4 -12 -17 -12h-39q-8 0 -8 12l10 65l27 128h-18 q-76 -101 -181.5 -165.5t-238.5 -64.5q-93 0 -169 35.5t-115 101.5l-91 -511q0 -6 -4.5 -10.5t-9.5 -4.5h-40q-12 0 -12 15z" />
<glyph unicode="&#xb6;" horiz-adv-x="1182" d="M176 953q0 221 153.5 354.5t392.5 133.5h557q12 0 12 -12l-4 -33q-4 -16 -19 -16h-87l-314 -1779q0 -6 -5 -10.5t-10 -4.5h-35q-14 0 -14 15l314 1779h-333l-314 -1779q0 -6 -4.5 -10.5t-9.5 -4.5h-38q-13 0 -13 15l181 1009q-188 0 -299 97t-111 246z" />
<glyph unicode="&#xb7;" horiz-adv-x="533" d="M282 683q0 38 29.5 66.5t67.5 28.5q29 0 48 -19t19 -47q0 -2 -1 -7.5t-1 -7.5q-6 -32 -34 -56.5t-61 -24.5q-30 0 -48.5 19t-18.5 48z" />
<glyph unicode="&#xb8;" horiz-adv-x="902" d="M124 -407l4 26q1 6 7 11.5t11 5.5q20 0 45.5 -6.5t41.5 -6.5q107 0 176 40.5t69 105.5q0 18 -8.5 31t-19.5 19.5t-19.5 15.5t-8.5 21l38 117q11 21 16 21h39q12 0 12 -17l-28 -101q25 -14 38 -43.5t13 -61.5q0 -86 -87 -145.5t-208 -59.5h-9q-7 -1 -15 -1t-20 0.5t-23 1 t-22.5 2.5t-20.5 5t-14.5 8t-6.5 11z" />
<glyph unicode="&#xb9;" horiz-adv-x="535" d="M217 1218q0 7 6 13l267 202q8 8 15 8h43q11 0 11 -10l-129 -722q-4 -12 -12 -12h-43q-11 0 -11 12l112 641l-219 -164q-3 -3 -8.5 -4.5t-8.5 1.5l-19 29q-4 4 -4 6z" />
<glyph unicode="&#xba;" horiz-adv-x="1218" d="M337 1016q0 139 66 256t173.5 182.5t230.5 65.5q147 0 242 -96t95 -243q0 -105 -40 -199.5t-107 -159t-152 -102t-174 -37.5q-150 0 -242 92t-92 241zM403 1020q0 -127 72.5 -200.5t195.5 -73.5q76 0 148.5 31t129.5 85.5t92 138.5t35 182q0 128 -73 201.5t-196 73.5 q-76 0 -148 -31t-129 -86.5t-92 -139.5t-35 -181z" />
<glyph unicode="&#xbb;" horiz-adv-x="1214" d="M75 176q0 6 6 12l482 410l-336 403q0 13 6 19l26 20q4 4 10 4t10 -4l358 -434q4 -8 4 -14q0 -12 -12 -21l-511 -433q-4 -4 -11 -4q-4 0 -8 4l-22 32q0 1 -1 3t-1 3zM584 176q0 6 6 12l482 410l-336 403q0 13 6 19l26 20q4 4 10 4t10 -4l358 -434q4 -8 4 -14 q0 -11 -13 -21l-510 -433q-4 -4 -11 -4q-4 0 -8 4l-22 32q0 1 -1 3t-1 3z" />
<glyph unicode="&#xbc;" horiz-adv-x="1522" d="M178 1218q0 7 6 13l266 202q9 8 16 8h43q10 0 10 -10l-128 -722q-4 -12 -12 -12h-44q-10 0 -10 12l111 641l-219 -164q-3 -3 -8 -4.5t-8 1.5l-19 29q-4 4 -4 6zM217 8q0 2 4 10l1082 1411q12 12 27 12h36q10 0 10 -8q0 -4 -2 -6l-1076 -1409q-14 -18 -27 -18h-42 q-12 0 -12 8zM846 203l4 26q2 19 21 38l447 461q16 16 34 16h36q10 0 10 -12l-85 -484h106q8 0 8 -13l-8 -36q0 -5 -4 -9t-8 -4h-106l-31 -176q0 -10 -11 -10h-43q-12 0 -12 10l31 176h-379q-10 0 -10 17zM943 248h304l69 393z" />
<glyph unicode="&#xbd;" horiz-adv-x="1598" d="M178 1218q0 7 6 13l266 202q9 8 16 8h43q10 0 10 -10l-128 -722q-4 -12 -12 -12h-44q-10 0 -10 12l111 641l-219 -164q-3 -3 -8 -4.5t-8 1.5l-19 29q-4 4 -4 6zM217 8q0 2 4 10l1082 1411q12 12 27 12h36q10 0 10 -8q0 -4 -2 -6l-1076 -1409q-14 -18 -27 -18h-42 q-12 0 -12 8zM1009 12l7 35q2 14 22 34l408 345q62 53 62 139q0 59 -39 94.5t-103 35.5q-57 0 -107.5 -31t-75.5 -80q-14 -23 -27 -19l-37 14q-6 3 -6 9q0 2 4 10q33 68 102.5 114t154.5 46q88 0 145.5 -53t57.5 -130q0 -128 -102 -211l-364 -304h368q9 0 9 -11l-7 -37 q-3 -12 -12 -12h-451q-9 0 -9 12z" />
<glyph unicode="&#xbe;" horiz-adv-x="1555" d="M118 819q0 10 12 16l24 15q2 2 8 2q4 0 8 -4q17 -39 59.5 -63.5t90.5 -24.5q80 0 141.5 57t61.5 143q0 58 -40 93t-104 35h-40q-8 0 -8 10l8 41q0 3 4 7t8 4h32q66 0 115.5 43.5t49.5 109.5q0 46 -31 74t-83 28q-22 0 -41.5 -4.5t-32.5 -9.5t-25.5 -15t-17.5 -16t-14 -17 t-11 -13q-10 -13 -21 -10l-27 20q-4 2 -4 10q0 30 62 73.5t140 43.5q74 0 125 -46t51 -112q0 -89 -115 -182q87 -69 87 -172q0 -107 -84.5 -182.5t-189.5 -75.5q-81 0 -139.5 44.5t-58.5 77.5zM273 8q0 2 4 10l1082 1411q13 12 27 12h35q10 0 10 -8q0 -4 -2 -6l-1075 -1409 q-15 -18 -27 -18h-41q-13 0 -13 8zM896 203l4 26q2 19 20 38l448 461q16 16 35 16h34q11 0 11 -12l-84 -484h105q8 0 8 -13l-8 -36q0 -5 -4.5 -9t-8.5 -4h-106l-30 -176q0 -10 -11 -10h-43q-13 0 -13 10l32 176h-379q-10 0 -10 17zM993 248h304l69 393z" />
<glyph unicode="&#xbf;" horiz-adv-x="1042" d="M8 -120q0 52 12.5 99t32 85.5t58.5 80.5t75 73t100.5 75.5t115 76t138.5 83.5l33 200q1 7 6.5 12.5t8.5 5.5h41q10 0 10 -18l-39 -221q-2 -20 -31 -41q-73 -43 -113 -66.5t-100.5 -62.5t-93.5 -65.5t-73 -64.5t-60 -71.5t-34 -74.5t-14 -83q0 -120 87.5 -194.5 t230.5 -74.5q101 0 202.5 32.5t182.5 89.5q8 4 10 4q8 0 11 -6l22 -33q2 -2 2 -9q0 -9 -6 -12q-219 -134 -430 -134q-178 0 -281.5 87.5t-103.5 226.5zM584 989q0 37 30 66t67 29q29 0 48 -19t19 -47q0 -2 -1 -7.5t-1 -7.5q-6 -33 -33.5 -57t-61.5 -24q-29 0 -48 19.5 t-19 47.5z" />
<glyph unicode="&#xc0;" horiz-adv-x="1360" d="M-43 10q0 2 4 10l860 1405q12 16 29 16h42q7 0 15 -5t9 -11l367 -1411q0 -14 -15 -14h-35q-6 0 -13 5.5t-8 12.5l-97 387h-844l-236 -387q-11 -18 -25 -18h-41q-12 0 -12 10zM306 462h795l-170 659q-14 53 -29 119t-23 105l-8 41h-8q-87 -151 -156 -265zM811 1926 q0 12 16 12h71q15 0 18 -14l69 -232q0 -6 -4 -11t-10 -5h-14q-16 0 -16 10l-128 231q-2 2 -2 9z" />
<glyph unicode="&#xc1;" horiz-adv-x="1360" d="M-43 10q0 2 4 10l860 1405q12 16 29 16h42q7 0 15 -5t9 -11l367 -1411q0 -14 -15 -14h-35q-6 0 -13 5.5t-8 12.5l-97 387h-844l-236 -387q-11 -18 -25 -18h-41q-12 0 -12 10zM306 462h795l-170 659q-14 53 -29 119t-23 105l-8 41h-8q-87 -151 -156 -265zM842 1690 q0 4 2 6l151 228q11 14 23 14h70q13 0 13 -8q0 -6 -7 -13l-208 -231q-10 -10 -19 -10h-13q-12 0 -12 14z" />
<glyph unicode="&#xc2;" horiz-adv-x="1360" d="M-43 10q0 2 4 10l860 1405q12 16 29 16h42q7 0 15 -5t9 -11l367 -1411q0 -14 -15 -14h-35q-6 0 -13 5.5t-8 12.5l-97 387h-844l-236 -387q-11 -18 -25 -18h-41q-12 0 -12 10zM306 462h795l-170 659q-14 53 -29 119t-23 105l-8 41h-8q-87 -151 -156 -265zM685 1690 q0 4 2 6l205 226q18 18 30 18h71q16 0 27 -18l121 -226q0 -20 -16 -20h-41q-17 0 -25 18l-110 201l-177 -201q-14 -18 -32 -18h-43q-12 0 -12 14z" />
<glyph unicode="&#xc3;" horiz-adv-x="1360" d="M-43 10q0 2 4 10l860 1405q12 16 29 16h42q7 0 15 -5t9 -11l367 -1411q0 -14 -15 -14h-35q-6 0 -13 5.5t-8 12.5l-97 387h-844l-236 -387q-11 -18 -25 -18h-41q-12 0 -12 10zM306 462h795l-170 659q-14 53 -29 119t-23 105l-8 41h-8q-87 -151 -156 -265zM575 1703 q0 6 2 10q26 81 85.5 128.5t127.5 47.5q29 0 71 -20t76.5 -43.5t72.5 -43.5t64 -20q40 0 82.5 36.5t63.5 84.5q7 12 21 12h34q12 0 12 -16q-40 -81 -98 -132t-121 -51q-35 0 -77 20t-74 44t-70 44t-65 20q-98 0 -141 -117q-6 -15 -21 -15h-34q-11 0 -11 11z" />
<glyph unicode="&#xc4;" horiz-adv-x="1360" d="M-43 10q0 2 4 10l860 1405q12 16 29 16h42q7 0 15 -5t9 -11l367 -1411q0 -14 -15 -14h-35q-6 0 -13 5.5t-8 12.5l-97 387h-844l-236 -387q-11 -18 -25 -18h-41q-12 0 -12 10zM306 462h795l-170 659q-14 53 -29 119t-23 105l-8 41h-8q-87 -151 -156 -265zM662 1779 q0 31 25 53.5t57 22.5q24 0 40.5 -14.5t16.5 -38.5q0 -29 -25.5 -54t-53.5 -25q-26 0 -43 16t-17 40zM1057 1779q0 32 26.5 54t54 22t44 -14t16.5 -37q0 -31 -25 -56t-58 -25q-23 0 -40.5 16t-17.5 40z" />
<glyph unicode="&#xc5;" horiz-adv-x="1360" d="M-43 10q0 2 4 10l860 1405q12 16 29 16h42q7 0 15 -5t9 -11l367 -1411q0 -14 -15 -14h-35q-6 0 -13 5.5t-8 12.5l-97 387h-844l-236 -387q-11 -18 -25 -18h-41q-12 0 -12 10zM306 462h795l-170 659q-14 53 -29 119t-23 105l-8 41h-8q-87 -151 -156 -265zM699 1839 q0 107 85.5 192t198.5 85q91 0 152 -54t61 -138q0 -113 -87 -199.5t-199 -86.5q-88 0 -149.5 57.5t-61.5 143.5zM758 1847q0 -68 42.5 -113.5t111.5 -45.5q81 0 152 68t71 155q0 66 -44 109.5t-108 43.5q-86 0 -155.5 -64.5t-69.5 -152.5z" />
<glyph unicode="&#xc6;" horiz-adv-x="2280" d="M-47 10q0 4 4 8l1371 1405q18 18 44 18h955q12 0 12 -12l-6 -35q0 -6 -5 -10t-11 -4h-886l-107 -610h782q12 0 12 -10l-6 -36q0 -6 -5 -10.5t-11 -4.5h-783l-113 -649h885q13 0 13 -11l-6 -35q-3 -14 -17 -14h-938q-12 0 -12 14l69 391h-772l-381 -389q-16 -16 -29 -16 h-49q-10 0 -10 10zM478 462h726l162 912z" />
<glyph unicode="&#xc7;" horiz-adv-x="1439" d="M168 573q0 232 112.5 437.5t309 331t426.5 125.5q150 0 276.5 -54.5t205.5 -151.5q2 -2 2 -8q0 -2 -1 -4.5t-1 -3.5l-31 -27q-5 -4 -13 -4q-4 0 -8 4q-76 88 -188 135t-244 47q-116 0 -230 -38.5t-212 -112.5t-173 -173t-118 -228.5t-43 -270.5q0 -244 144.5 -390 t381.5 -146q131 0 261.5 49.5t240.5 138.5q2 2 9 2q2 0 6.5 -1t5.5 -1l24 -30q2 -2 2 -9q0 -8 -4 -12q-108 -89 -243 -143t-276 -60l-28 -99q25 -14 38 -43.5t13 -61.5q0 -86 -87.5 -145.5t-208.5 -59.5h-8q-7 -1 -15 -1t-20 0.5t-23.5 1t-23 2.5t-20 5t-14 8t-6.5 11l4 26 q1 6 7.5 11.5t11.5 5.5q19 0 45 -6.5t42 -6.5q107 0 175 40.5t68 105.5q0 18 -8.5 31t-19 19.5t-19 15.5t-8.5 21l37 117v4q-256 12 -405 177.5t-149 418.5z" />
<glyph unicode="&#xc8;" horiz-adv-x="1292" d="M128 14l249 1415q4 12 16 12h947q12 0 12 -12l-6 -35q0 -6 -5 -10t-11 -4h-898l-107 -610h792q12 0 12 -10l-6 -36q0 -6 -5 -10.5t-11 -4.5h-793l-113 -649h897q13 0 13 -11l-6 -35q-4 -14 -17 -14h-948q-12 0 -12 14zM776 1926q0 12 16 12h71q14 0 18 -14l68 -232 q0 -6 -4 -11t-10 -5h-13q-16 0 -16 10l-128 231q-2 2 -2 9z" />
<glyph unicode="&#xc9;" horiz-adv-x="1292" d="M128 14l249 1415q4 12 16 12h947q12 0 12 -12l-6 -35q0 -6 -5 -10t-11 -4h-898l-107 -610h792q12 0 12 -10l-6 -36q0 -6 -5 -10.5t-11 -4.5h-793l-113 -649h897q13 0 13 -11l-6 -35q-4 -14 -17 -14h-948q-12 0 -12 14zM807 1690q0 4 2 6l151 228q10 14 23 14h69 q14 0 14 -8q0 -7 -7 -13l-209 -231q-10 -10 -19 -10h-12q-12 0 -12 14z" />
<glyph unicode="&#xca;" horiz-adv-x="1292" d="M128 14l249 1415q4 12 16 12h947q12 0 12 -12l-6 -35q0 -6 -5 -10t-11 -4h-898l-107 -610h792q12 0 12 -10l-6 -36q0 -6 -5 -10.5t-11 -4.5h-793l-113 -649h897q13 0 13 -11l-6 -35q-4 -14 -17 -14h-948q-12 0 -12 14zM649 1690q0 4 2 6l205 226q19 18 32 18h69 q17 0 28 -18l122 -226q0 -20 -17 -20h-42q-17 0 -24 18l-110 201l-178 -201q-14 -18 -31 -18h-43q-13 0 -13 14z" />
<glyph unicode="&#xcb;" horiz-adv-x="1292" d="M128 14l249 1415q4 12 16 12h947q12 0 12 -12l-6 -35q0 -6 -5 -10t-11 -4h-898l-107 -610h792q12 0 12 -10l-6 -36q0 -6 -5 -10.5t-11 -4.5h-793l-113 -649h897q13 0 13 -11l-6 -35q-4 -14 -17 -14h-948q-12 0 -12 14zM629 1779q0 31 25.5 53.5t57.5 22.5 q23 0 39.5 -14.5t16.5 -38.5q0 -29 -25.5 -54t-53.5 -25q-26 0 -43 15.5t-17 40.5zM1024 1779q0 32 27 54t54 22q26 0 43 -14t17 -37q0 -31 -25 -56t-58 -25q-24 0 -41 16t-17 40z" />
<glyph unicode="&#xcc;" horiz-adv-x="440" d="M128 14l249 1415q4 12 16 12h37q10 0 10 -12l-248 -1415q-4 -14 -14 -14h-38q-12 0 -12 14zM354 1926q0 12 17 12h69q17 0 20 -14l67 -232q0 -6 -4 -11t-10 -5h-12q-7 0 -12 3.5t-5 6.5l-128 231q-2 2 -2 9z" />
<glyph unicode="&#xcd;" horiz-adv-x="440" d="M128 14l249 1415q4 12 16 12h37q10 0 10 -12l-248 -1415q-4 -14 -14 -14h-38q-12 0 -12 14zM385 1690q0 4 2 6l150 228q10 14 24 14h70q12 0 12 -8q0 -7 -6 -13l-209 -231q-10 -10 -18 -10h-13q-12 0 -12 14z" />
<glyph unicode="&#xce;" horiz-adv-x="440" d="M128 14l249 1415q4 12 16 12h37q10 0 10 -12l-248 -1415q-4 -14 -14 -14h-38q-12 0 -12 14zM227 1690q0 4 2 6l205 226q18 18 32 18h69q16 0 28 -18l122 -226q0 -20 -16 -20h-42q-18 0 -25 18l-110 201l-178 -201q-14 -18 -30 -18h-44q-13 0 -13 14z" />
<glyph unicode="&#xcf;" horiz-adv-x="440" d="M128 14l249 1415q4 12 16 12h37q10 0 10 -12l-248 -1415q-4 -14 -14 -14h-38q-12 0 -12 14zM205 1779q0 31 25.5 53.5t57.5 22.5q23 0 39 -14.5t16 -38.5q0 -29 -25 -54t-53 -25q-27 0 -43.5 15.5t-16.5 40.5zM600 1779q0 32 26.5 54t54.5 22q26 0 42.5 -14t16.5 -37 q0 -31 -24.5 -56t-57.5 -25q-24 0 -41 16t-17 40z" />
<glyph unicode="&#xd0;" horiz-adv-x="1559" d="M105 705l7 37q0 4 4.5 8.5t9.5 4.5h131l118 674q4 12 16 12h482q301 0 475 -147.5t174 -414.5q0 -210 -71 -379t-194.5 -277t-284.5 -165.5t-345 -57.5h-489q-12 0 -12 12l118 679h-130q-9 0 -9 14zM199 60h440q168 0 314.5 54.5t257.5 155.5t175 257t64 348 q0 245 -152 375t-427 130h-441l-110 -625h365q12 0 12 -13l-6 -37q-4 -14 -18 -14h-365z" />
<glyph unicode="&#xd1;" horiz-adv-x="1526" d="M128 14l249 1415q4 12 16 12h31q13 0 16 -12l776 -1313h19q5 26 17.5 111.5t26.5 165.5l181 1036q4 12 17 12h39q10 0 10 -12l-247 -1415q-4 -14 -15 -14h-38q-8 0 -20 8l-774 1316h-16q-4 -65 -39 -270l-185 -1040q-4 -14 -14 -14h-38q-12 0 -12 14zM658 1703q0 6 2 10 q26 81 85.5 128.5t127.5 47.5q29 0 71 -20t76 -43.5t72.5 -43.5t63.5 -20q41 0 83.5 36.5t63.5 84.5q7 12 21 12h32q14 0 14 -16q-40 -81 -98 -132t-122 -51q-34 0 -76 20t-74 44t-70 44t-65 20q-98 0 -141 -117q-6 -15 -21 -15h-34q-11 0 -11 11z" />
<glyph unicode="&#xd2;" horiz-adv-x="1648" d="M168 573q0 232 112.5 437.5t309 331t426.5 125.5q136 0 248.5 -46t187.5 -126t116 -189.5t41 -236.5q0 -174 -67 -337.5t-180.5 -286t-271 -196.5t-328.5 -74q-138 0 -250.5 46t-187.5 125.5t-115.5 189t-40.5 237.5zM238 579q0 -245 144.5 -391.5t381.5 -146.5 q145 0 285.5 62t249.5 168.5t175.5 262.5t66.5 331q0 242 -145.5 388.5t-381.5 146.5q-146 0 -286 -61.5t-248.5 -167.5t-175 -262t-66.5 -330zM953 1926q0 12 18 12h69q16 0 19 -14l68 -232q0 -6 -4 -11t-10 -5h-12q-7 0 -12 3.5t-5 6.5l-129 231q-2 2 -2 9z" />
<glyph unicode="&#xd3;" horiz-adv-x="1648" d="M168 573q0 232 112.5 437.5t309 331t426.5 125.5q136 0 248.5 -46t187.5 -126t116 -189.5t41 -236.5q0 -174 -67 -337.5t-180.5 -286t-271 -196.5t-328.5 -74q-138 0 -250.5 46t-187.5 125.5t-115.5 189t-40.5 237.5zM238 579q0 -245 144.5 -391.5t381.5 -146.5 q145 0 285.5 62t249.5 168.5t175.5 262.5t66.5 331q0 242 -145.5 388.5t-381.5 146.5q-146 0 -286 -61.5t-248.5 -167.5t-175 -262t-66.5 -330zM985 1690q0 4 2 6l150 228q10 14 23 14h71q12 0 12 -8q0 -7 -6 -13l-209 -231q-10 -10 -19 -10h-12q-12 0 -12 14z" />
<glyph unicode="&#xd4;" horiz-adv-x="1648" d="M168 573q0 232 112.5 437.5t309 331t426.5 125.5q136 0 248.5 -46t187.5 -126t116 -189.5t41 -236.5q0 -174 -67 -337.5t-180.5 -286t-271 -196.5t-328.5 -74q-138 0 -250.5 46t-187.5 125.5t-115.5 189t-40.5 237.5zM238 579q0 -245 144.5 -391.5t381.5 -146.5 q145 0 285.5 62t249.5 168.5t175.5 262.5t66.5 331q0 242 -145.5 388.5t-381.5 146.5q-146 0 -286 -61.5t-248.5 -167.5t-175 -262t-66.5 -330zM827 1690q0 4 2 6l205 226q18 18 32 18h69q16 0 28 -18l122 -226q0 -20 -17 -20h-42q-17 0 -24 18l-110 201l-178 -201 q-14 -18 -31 -18h-44q-12 0 -12 14z" />
<glyph unicode="&#xd5;" horiz-adv-x="1648" d="M168 573q0 232 112.5 437.5t309 331t426.5 125.5q136 0 248.5 -46t187.5 -126t116 -189.5t41 -236.5q0 -174 -67 -337.5t-180.5 -286t-271 -196.5t-328.5 -74q-138 0 -250.5 46t-187.5 125.5t-115.5 189t-40.5 237.5zM238 579q0 -245 144.5 -391.5t381.5 -146.5 q145 0 285.5 62t249.5 168.5t175.5 262.5t66.5 331q0 242 -145.5 388.5t-381.5 146.5q-146 0 -286 -61.5t-248.5 -167.5t-175 -262t-66.5 -330zM720 1703q0 6 2 10q26 81 86 128.5t127 47.5q30 0 71 -20t75.5 -43.5t73 -43.5t63.5 -20q40 0 83 37t65 84q7 12 20 12h33 q12 0 12 -16q-39 -81 -97 -132t-122 -51q-34 0 -76 20t-74 44t-70 44t-65 20q-99 0 -141 -117q-6 -15 -20 -15h-36q-10 0 -10 11z" />
<glyph unicode="&#xd6;" horiz-adv-x="1648" d="M168 573q0 232 112.5 437.5t309 331t426.5 125.5q136 0 248.5 -46t187.5 -126t116 -189.5t41 -236.5q0 -174 -67 -337.5t-180.5 -286t-271 -196.5t-328.5 -74q-138 0 -250.5 46t-187.5 125.5t-115.5 189t-40.5 237.5zM238 579q0 -245 144.5 -391.5t381.5 -146.5 q145 0 285.5 62t249.5 168.5t175.5 262.5t66.5 331q0 242 -145.5 388.5t-381.5 146.5q-146 0 -286 -61.5t-248.5 -167.5t-175 -262t-66.5 -330zM807 1779q0 31 25 53.5t58 22.5q23 0 39 -14.5t16 -38.5q0 -29 -25 -54t-53 -25q-27 0 -43.5 15.5t-16.5 40.5zM1202 1779 q0 32 26.5 54t54.5 22q26 0 42.5 -14t16.5 -37q0 -31 -24.5 -56t-58.5 -25q-23 0 -40 16t-17 40z" />
<glyph unicode="&#xd7;" d="M227 1094l28 27q10 10 20 0l391 -391l388 389q11 10 20 2l27 -27q7 -10 0 -20l-392 -389l392 -391q7 -11 0 -21l-25 -23q-11 -7 -19 0l-391 391l-391 -391q-11 -7 -20 2l-26 23q-8 11 0 19l391 391l-391 391q-10 10 -2 18z" />
<glyph unicode="&#xd8;" horiz-adv-x="1648" d="M168 571q0 173 67.5 338t181.5 288t273 197.5t332 74.5q184 0 326 -89l63 80q12 13 26 13h30q10 0 10 -9q0 -4 -2 -6l-81 -108q104 -79 159.5 -205t55.5 -278q0 -173 -68 -336.5t-182 -285.5t-272 -196t-329 -74q-196 0 -346 96l-56 -77q-16 -19 -29 -19h-35q-10 0 -10 9 q0 6 4 10l85 109q-98 80 -150.5 201.5t-52.5 266.5zM235 577q0 -135 44.5 -243.5t127.5 -177.5l902 1172q-125 75 -300 75q-178 0 -338 -85t-272.5 -241.5t-148.5 -354.5q-15 -97 -15 -145zM453 124q123 -83 317 -83q116 0 229 39t210 113t171 173.5t116.5 228.5t42.5 270 q0 139 -48.5 250.5t-138.5 181.5z" />
<glyph unicode="&#xd9;" horiz-adv-x="1561" d="M209 476q0 65 12 140l143 813q4 12 17 12h37q10 0 10 -12l-138 -792q-13 -80 -13 -143q0 -208 114.5 -330.5t328.5 -122.5q251 0 426.5 166t223.5 430l140 792q4 12 16 12h37q12 0 12 -12l-144 -813q-51 -287 -249 -464t-464 -177q-235 0 -372 135.5t-137 365.5z M910 1926q0 12 17 12h70q15 0 19 -14l68 -232q0 -6 -4 -11t-10 -5h-13q-7 0 -12 3.5t-5 6.5l-128 231q-2 2 -2 9z" />
<glyph unicode="&#xda;" horiz-adv-x="1561" d="M209 476q0 65 12 140l143 813q4 12 17 12h37q10 0 10 -12l-138 -792q-13 -80 -13 -143q0 -208 114.5 -330.5t328.5 -122.5q251 0 426.5 166t223.5 430l140 792q4 12 16 12h37q12 0 12 -12l-144 -813q-51 -287 -249 -464t-464 -177q-235 0 -372 135.5t-137 365.5z M941 1690q0 4 2 6l151 228q11 14 23 14h71q12 0 12 -8q0 -7 -6 -13l-209 -231q-10 -10 -19 -10h-13q-12 0 -12 14z" />
<glyph unicode="&#xdb;" horiz-adv-x="1561" d="M209 476q0 65 12 140l143 813q4 12 17 12h37q10 0 10 -12l-138 -792q-13 -80 -13 -143q0 -208 114.5 -330.5t328.5 -122.5q251 0 426.5 166t223.5 430l140 792q4 12 16 12h37q12 0 12 -12l-144 -813q-51 -287 -249 -464t-464 -177q-235 0 -372 135.5t-137 365.5z M784 1690q0 4 2 6l205 226q18 18 31 18h70q16 0 27 -18l122 -226q0 -20 -17 -20h-41q-17 0 -25 18l-110 201l-177 -201q-15 -18 -32 -18h-43q-12 0 -12 14z" />
<glyph unicode="&#xdc;" horiz-adv-x="1561" d="M209 476q0 65 12 140l143 813q4 12 17 12h37q10 0 10 -12l-138 -792q-13 -80 -13 -143q0 -208 114.5 -330.5t328.5 -122.5q251 0 426.5 166t223.5 430l140 792q4 12 16 12h37q12 0 12 -12l-144 -813q-51 -287 -249 -464t-464 -177q-235 0 -372 135.5t-137 365.5z M764 1779q0 31 25 53.5t57 22.5q24 0 40 -14.5t16 -38.5q0 -29 -25.5 -54t-53.5 -25q-26 0 -42.5 15.5t-16.5 40.5zM1158 1779q0 32 27 54t54 22t43.5 -14t16.5 -37q0 -31 -25 -56t-58 -25q-23 0 -40.5 16t-17.5 40z" />
<glyph unicode="&#xdd;" horiz-adv-x="1244" d="M199 1429q0 12 10 12h43q13 0 19 -14l400 -776l671 776q8 14 22 14h53q8 0 8 -8q0 -6 -4 -10l-724 -833l-101 -576q-4 -14 -17 -14h-37q-13 0 -13 14l102 576l-430 833q-2 2 -2 6zM784 1690q0 4 2 6l151 228q10 14 23 14h70q12 0 12 -8q0 -7 -6 -13l-209 -231 q-10 -10 -18 -10h-13q-12 0 -12 14z" />
<glyph unicode="&#xde;" horiz-adv-x="1281" d="M116 14l248 1415q4 12 17 12h37q10 0 10 -12l-45 -260h469q205 0 323 -96.5t118 -263.5q0 -154 -79.5 -271.5t-213.5 -179.5t-301 -62h-470l-49 -282q-4 -14 -14 -14h-38q-12 0 -12 14zM240 356h486q136 0 249.5 56t181 158.5t67.5 228.5q0 150 -95.5 230t-272.5 80h-483 z" />
<glyph unicode="&#xdf;" horiz-adv-x="1234" d="M107 14l183 1040q43 253 166 377t328 124q141 0 226.5 -78.5t85.5 -191.5q0 -131 -96.5 -256.5t-263.5 -201.5l-2 -8q100 -15 178 -55.5t123.5 -95.5t68.5 -116.5t23 -125.5q0 -121 -67 -226.5t-174 -165t-224 -59.5q-47 0 -137.5 24t-90.5 50q0 5 2 9l14 27q8 10 18 10 q6 0 8 -2q94 -58 193 -58q101 0 191 55.5t143.5 145.5t53.5 186q0 59 -23.5 115t-70 104t-124 79t-175.5 35q-13 0 -13 17l13 70q2 15 25 27q63 31 118.5 69.5t106.5 89t80.5 114t29.5 131.5q0 92 -62 154.5t-184 62.5q-350 0 -427 -436l-181 -1040q-4 -14 -14 -14h-38 q-11 0 -11 14z" />
<glyph unicode="&#xe0;" horiz-adv-x="1089" d="M77 225q0 70 21.5 126.5t57.5 96t90.5 68.5t111 46t129 27t135.5 13.5t138 3.5h140l10 63q10 65 10 109q0 120 -67 182t-218 62q-21 0 -41 -1t-41 -4t-36 -5t-35.5 -7.5t-31.5 -8t-31.5 -9t-26 -8.5t-26.5 -9t-23 -8q-4 -2 -8 -2q-6 0 -6 6l-9 31q-2 2 -2 6q0 11 11 15 q81 34 157 50t187 16q63 0 118 -17t100.5 -51t71.5 -93.5t26 -138.5q0 -52 -8 -99l-118 -671q-5 -14 -17 -14h-33q-12 0 -12 14l30 176h-16q-70 -90 -190.5 -152.5t-247.5 -62.5q-134 0 -217 71t-83 179zM144 231q0 -92 68 -142t193 -50q62 0 135.5 26.5t140 71t117.5 112 t65 142.5l29 161h-122q-89 0 -164 -6t-148 -19t-128 -37t-98 -59t-65.5 -85.5t-22.5 -114.5zM608 1543q0 12 16 12h71q16 0 19 -14l68 -232q0 -6 -4 -11t-10 -5h-13q-7 0 -12 3.5t-5 6.5l-128 232q-2 2 -2 8z" />
<glyph unicode="&#xe1;" horiz-adv-x="1089" d="M77 225q0 70 21.5 126.5t57.5 96t90.5 68.5t111 46t129 27t135.5 13.5t138 3.5h140l10 63q10 65 10 109q0 120 -67 182t-218 62q-21 0 -41 -1t-41 -4t-36 -5t-35.5 -7.5t-31.5 -8t-31.5 -9t-26 -8.5t-26.5 -9t-23 -8q-4 -2 -8 -2q-6 0 -6 6l-9 31q-2 2 -2 6q0 11 11 15 q81 34 157 50t187 16q63 0 118 -17t100.5 -51t71.5 -93.5t26 -138.5q0 -52 -8 -99l-118 -671q-5 -14 -17 -14h-33q-12 0 -12 14l30 176h-16q-70 -90 -190.5 -152.5t-247.5 -62.5q-134 0 -217 71t-83 179zM144 231q0 -92 68 -142t193 -50q62 0 135.5 26.5t140 71t117.5 112 t65 142.5l29 161h-122q-89 0 -164 -6t-148 -19t-128 -37t-98 -59t-65.5 -85.5t-22.5 -114.5zM639 1307q0 4 2 6l151 228q10 14 23 14h71q12 0 12 -8q0 -6 -6 -12l-209 -232q-10 -10 -19 -10h-13q-12 0 -12 14z" />
<glyph unicode="&#xe2;" horiz-adv-x="1089" d="M77 225q0 70 21.5 126.5t57.5 96t90.5 68.5t111 46t129 27t135.5 13.5t138 3.5h140l10 63q10 65 10 109q0 120 -67 182t-218 62q-21 0 -41 -1t-41 -4t-36 -5t-35.5 -7.5t-31.5 -8t-31.5 -9t-26 -8.5t-26.5 -9t-23 -8q-4 -2 -8 -2q-6 0 -6 6l-9 31q-2 2 -2 6q0 11 11 15 q81 34 157 50t187 16q63 0 118 -17t100.5 -51t71.5 -93.5t26 -138.5q0 -52 -8 -99l-118 -671q-5 -14 -17 -14h-33q-12 0 -12 14l30 176h-16q-70 -90 -190.5 -152.5t-247.5 -62.5q-134 0 -217 71t-83 179zM144 231q0 -92 68 -142t193 -50q62 0 135.5 26.5t140 71t117.5 112 t65 142.5l29 161h-122q-89 0 -164 -6t-148 -19t-128 -37t-98 -59t-65.5 -85.5t-22.5 -114.5zM482 1307q0 4 2 6l205 226q18 18 31 18h70q16 0 27 -18l122 -226q0 -20 -17 -20h-41q-17 0 -25 18l-110 201l-177 -201q-15 -18 -32 -18h-43q-12 0 -12 14z" />
<glyph unicode="&#xe3;" horiz-adv-x="1089" d="M77 225q0 70 21.5 126.5t57.5 96t90.5 68.5t111 46t129 27t135.5 13.5t138 3.5h140l10 63q10 65 10 109q0 120 -67 182t-218 62q-21 0 -41 -1t-41 -4t-36 -5t-35.5 -7.5t-31.5 -8t-31.5 -9t-26 -8.5t-26.5 -9t-23 -8q-4 -2 -8 -2q-6 0 -6 6l-9 31q-2 2 -2 6q0 11 11 15 q81 34 157 50t187 16q63 0 118 -17t100.5 -51t71.5 -93.5t26 -138.5q0 -52 -8 -99l-118 -671q-5 -14 -17 -14h-33q-12 0 -12 14l30 176h-16q-70 -90 -190.5 -152.5t-247.5 -62.5q-134 0 -217 71t-83 179zM144 231q0 -92 68 -142t193 -50q62 0 135.5 26.5t140 71t117.5 112 t65 142.5l29 161h-122q-89 0 -164 -6t-148 -19t-128 -37t-98 -59t-65.5 -85.5t-22.5 -114.5zM375 1320q0 6 2 10q26 81 85.5 128.5t127.5 47.5q37 0 92 -32t107.5 -63t83.5 -31q40 0 83 36.5t64 83.5q7 12 20 12h34q12 0 12 -16q-40 -81 -98 -132t-121 -51q-35 0 -77 20 t-74 44t-70 44t-65 20q-98 0 -141 -117q-6 -15 -20 -15h-35q-10 0 -10 11z" />
<glyph unicode="&#xe4;" horiz-adv-x="1089" d="M77 225q0 70 21.5 126.5t57.5 96t90.5 68.5t111 46t129 27t135.5 13.5t138 3.5h140l10 63q10 65 10 109q0 120 -67 182t-218 62q-21 0 -41 -1t-41 -4t-36 -5t-35.5 -7.5t-31.5 -8t-31.5 -9t-26 -8.5t-26.5 -9t-23 -8q-4 -2 -8 -2q-6 0 -6 6l-9 31q-2 2 -2 6q0 11 11 15 q81 34 157 50t187 16q63 0 118 -17t100.5 -51t71.5 -93.5t26 -138.5q0 -52 -8 -99l-118 -671q-5 -14 -17 -14h-33q-12 0 -12 14l30 176h-16q-70 -90 -190.5 -152.5t-247.5 -62.5q-134 0 -217 71t-83 179zM144 231q0 -92 68 -142t193 -50q62 0 135.5 26.5t140 71t117.5 112 t65 142.5l29 161h-122q-89 0 -164 -6t-148 -19t-128 -37t-98 -59t-65.5 -85.5t-22.5 -114.5zM462 1396q0 31 25 54t57 23q24 0 40 -15t16 -39q0 -29 -25.5 -54t-53.5 -25q-26 0 -42.5 16t-16.5 40zM856 1396q0 32 27 54.5t54 22.5t43.5 -14.5t16.5 -37.5q0 -31 -25 -56 t-58 -25q-23 0 -40.5 16.5t-17.5 39.5z" />
<glyph unicode="&#xe5;" horiz-adv-x="1089" d="M77 225q0 70 21.5 126.5t57.5 96t90.5 68.5t111 46t129 27t135.5 13.5t138 3.5h140l10 63q10 65 10 109q0 120 -67 182t-218 62q-21 0 -41 -1t-41 -4t-36 -5t-35.5 -7.5t-31.5 -8t-31.5 -9t-26 -8.5t-26.5 -9t-23 -8q-4 -2 -8 -2q-6 0 -6 6l-9 31q-2 2 -2 6q0 11 11 15 q81 34 157 50t187 16q63 0 118 -17t100.5 -51t71.5 -93.5t26 -138.5q0 -52 -8 -99l-118 -671q-5 -14 -17 -14h-33q-12 0 -12 14l30 176h-16q-70 -90 -190.5 -152.5t-247.5 -62.5q-134 0 -217 71t-83 179zM144 231q0 -92 68 -142t193 -50q62 0 135.5 26.5t140 71t117.5 112 t65 142.5l29 161h-122q-89 0 -164 -6t-148 -19t-128 -37t-98 -59t-65.5 -85.5t-22.5 -114.5zM497 1456q0 107 85 192t198 85q91 0 152 -54t61 -138q0 -113 -87 -199.5t-199 -86.5q-88 0 -149 58t-61 143zM554 1464q0 -68 43 -113.5t112 -45.5q81 0 152.5 68t71.5 155 q0 66 -44.5 110t-108.5 44q-86 0 -156 -65t-70 -153z" />
<glyph unicode="&#xe6;" horiz-adv-x="1921" d="M77 223q0 70 21.5 127t57.5 96t90 68.5t110.5 46.5t128.5 27.5t135 14t138 3.5h142l10 60q10 62 10 108q0 248 -287 248q-31 0 -63 -3.5t-54.5 -7.5t-52 -12t-42.5 -12.5t-41.5 -14.5t-34.5 -12q-2 -3 -8 -3q-7 0 -10 11q-4 19 -6 28l-1 3q0 8 9 17q32 24 146 46t198 22 q123 0 212.5 -69t103.5 -212q95 133 223 207t276 74q177 0 276 -99t99 -284q0 -78 -10 -132q-7 -38 -31 -38h-867q-10 -62 -10 -105q0 -180 111 -283.5t294 -103.5q21 0 42 1.5t39 3.5t39.5 7t35.5 8t34.5 9t31.5 9t31 10t26.5 9.5t25.5 9.5t21 8q1 0 3 1t3 1q9 0 14 -11 q2 -31 2 -45q0 -7 -6 -11q-91 -38 -168.5 -56t-193.5 -18q-165 0 -282 83t-158 230q-77 -146 -212 -229.5t-297 -83.5q-135 0 -219.5 70t-84.5 178zM144 231q0 -88 72 -140t196 -52q84 0 180 43t174.5 126.5t96.5 182.5l27 157h-122q-109 0 -195.5 -7.5t-169.5 -28.5 t-137.5 -55.5t-88 -91.5t-33.5 -134zM973 590h814q7 58 7 95q0 157 -81 247t-228 90q-179 0 -319 -115.5t-193 -316.5z" />
<glyph unicode="&#xe7;" horiz-adv-x="1008" d="M114 391q0 161 48.5 294.5t132 219.5t192 132.5t231.5 46.5q93 0 183.5 -36.5t157.5 -96.5q0 -1 1.5 -5.5t1.5 -6.5q0 -8 -3 -10l-23 -25q-6 -6 -12 -6t-8 2q-150 122 -298 122q-107 0 -203.5 -42.5t-170.5 -119.5t-118 -197t-44 -264q0 -171 92 -265.5t259 -94.5 q84 0 177 35t173 92q2 2 9 2t10 -6l16 -34q3 -10 -8 -18q-156 -121 -335 -133l-29 -101q26 -14 39 -43.5t13 -61.5q0 -86 -87.5 -145.5t-208.5 -59.5h-7q-8 -1 -16 -1t-20.5 0.5t-23.5 1t-22.5 2.5t-20 5t-14 8t-6.5 11l4 26q1 6 7.5 11.5t11.5 5.5q19 0 45 -6.5t42 -6.5 q107 0 175 40.5t68 105.5q0 18 -8.5 31t-19 19.5t-19 15.5t-8.5 21l37 117v2q-183 8 -288 117t-105 299z" />
<glyph unicode="&#xe8;" horiz-adv-x="1157" d="M116 407q0 150 51 278.5t135.5 214.5t195 135t228.5 49q180 0 277.5 -99.5t97.5 -285.5q0 -51 -11 -130q-3 -17 -11 -27.5t-15 -10.5h-869q-11 -68 -11 -105q0 -181 108.5 -284t291.5 -103q159 0 330 68q10 5 15 -4q10 -39 10 -41q0 -17 -12 -23q-44 -24 -161 -44 t-199 -20q-207 0 -329 117t-122 315zM209 590h817q8 47 8 101q0 158 -78.5 244.5t-229.5 86.5q-187 0 -324 -114.5t-193 -317.5zM643 1543q0 12 17 12h70q15 0 18 -14l69 -232q0 -6 -4 -11t-10 -5h-13q-16 0 -16 10l-129 232q-2 2 -2 8z" />
<glyph unicode="&#xe9;" horiz-adv-x="1157" d="M116 407q0 150 51 278.5t135.5 214.5t195 135t228.5 49q180 0 277.5 -99.5t97.5 -285.5q0 -51 -11 -130q-3 -17 -11 -27.5t-15 -10.5h-869q-11 -68 -11 -105q0 -181 108.5 -284t291.5 -103q159 0 330 68q10 5 15 -4q10 -39 10 -41q0 -17 -12 -23q-44 -24 -161 -44 t-199 -20q-207 0 -329 117t-122 315zM209 590h817q8 47 8 101q0 158 -78.5 244.5t-229.5 86.5q-187 0 -324 -114.5t-193 -317.5zM675 1307q0 4 2 6l150 228q11 14 23 14h70q13 0 13 -8q0 -6 -6 -12l-209 -232q-10 -10 -19 -10h-12q-12 0 -12 14z" />
<glyph unicode="&#xea;" horiz-adv-x="1157" d="M116 407q0 150 51 278.5t135.5 214.5t195 135t228.5 49q180 0 277.5 -99.5t97.5 -285.5q0 -51 -11 -130q-3 -17 -11 -27.5t-15 -10.5h-869q-11 -68 -11 -105q0 -181 108.5 -284t291.5 -103q159 0 330 68q10 5 15 -4q10 -39 10 -41q0 -17 -12 -23q-44 -24 -161 -44 t-199 -20q-207 0 -329 117t-122 315zM209 590h817q8 47 8 101q0 158 -78.5 244.5t-229.5 86.5q-187 0 -324 -114.5t-193 -317.5zM517 1307q0 4 2 6l205 226q18 18 31 18h70q16 0 27 -18l123 -226q0 -20 -18 -20h-41q-17 0 -24 18l-110 201l-178 -201q-14 -18 -31 -18h-44 q-12 0 -12 14z" />
<glyph unicode="&#xeb;" horiz-adv-x="1157" d="M116 407q0 150 51 278.5t135.5 214.5t195 135t228.5 49q180 0 277.5 -99.5t97.5 -285.5q0 -51 -11 -130q-3 -17 -11 -27.5t-15 -10.5h-869q-11 -68 -11 -105q0 -181 108.5 -284t291.5 -103q159 0 330 68q10 5 15 -4q10 -39 10 -41q0 -17 -12 -23q-44 -24 -161 -44 t-199 -20q-207 0 -329 117t-122 315zM209 590h817q8 47 8 101q0 158 -78.5 244.5t-229.5 86.5q-187 0 -324 -114.5t-193 -317.5zM494 1396q0 31 25 54t58 23q23 0 39.5 -15t16.5 -39q0 -29 -25 -54t-54 -25q-26 0 -43 16.5t-17 39.5zM890 1396q0 32 26.5 54.5t54.5 22.5 q26 0 42.5 -14.5t16.5 -37.5q0 -31 -24.5 -56t-58.5 -25q-23 0 -40 16.5t-17 39.5z" />
<glyph unicode="&#xec;" horiz-adv-x="398" d="M107 14l183 1032q0 5 5 9t11 4h37q8 0 8 -13l-181 -1032q-4 -14 -12 -14h-38q-13 0 -13 14zM265 1543q0 12 17 12h69q17 0 20 -14l67 -232q0 -6 -4 -11t-10 -5h-12q-7 0 -12 3.5t-5 6.5l-128 232q-2 2 -2 8z" />
<glyph unicode="&#xed;" horiz-adv-x="398" d="M107 14l183 1032q0 5 5 9t11 4h37q8 0 8 -13l-181 -1032q-4 -14 -12 -14h-38q-13 0 -13 14zM296 1307q0 4 2 6l150 228q11 14 24 14h70q12 0 12 -8q0 -6 -6 -12l-209 -232q-10 -10 -19 -10h-12q-12 0 -12 14z" />
<glyph unicode="&#xee;" horiz-adv-x="398" d="M107 14l183 1032q0 5 5 9t11 4h37q8 0 8 -13l-181 -1032q-4 -14 -12 -14h-38q-13 0 -13 14zM138 1307q0 4 2 6l205 226q19 18 32 18h69q17 0 28 -18l122 -226q0 -20 -17 -20h-42q-17 0 -24 18l-110 201l-178 -201q-14 -18 -30 -18h-43q-14 0 -14 14z" />
<glyph unicode="&#xef;" horiz-adv-x="398" d="M107 14l183 1032q0 5 5 9t11 4h37q8 0 8 -13l-181 -1032q-4 -14 -12 -14h-38q-13 0 -13 14zM116 1396q0 31 25.5 54t57.5 23q23 0 39.5 -15t16.5 -39q0 -29 -25.5 -54t-53.5 -25q-27 0 -43.5 16t-16.5 40zM511 1396q0 32 27 54.5t54 22.5q26 0 42.5 -14.5t16.5 -37.5 q0 -31 -24.5 -56t-57.5 -25q-24 0 -41 16.5t-17 39.5z" />
<glyph unicode="&#xf0;" horiz-adv-x="1143" d="M105 364q0 144 48.5 266.5t128.5 203t181.5 125t209.5 44.5q285 0 373 -188l16 6q-19 175 -72 290.5t-157 236.5l-279 -156q-2 -2 -6 -2q-14 0 -17 14l-6 16q0 12 10 19l264 145q-90 90 -122 116l-17 14q0 8 6 14l23 23q2 2 8 2q11 0 17 -4q31 -25 75 -67.5t65 -66.5 l236 132q2 0 8 -3.5t7 -6.5l12 -23q0 -12 -10 -16l-215 -120q233 -283 233 -614q0 -87 -16 -189q-55 -301 -210 -450.5t-382 -149.5q-187 0 -299.5 99.5t-112.5 289.5zM176 373q0 -168 95 -251t252 -83q68 0 131 16t123.5 51.5t109 89.5t86 136.5t55.5 184.5q8 48 8 97 q0 90 -31.5 156t-85 102t-113.5 52.5t-125 16.5q-94 0 -183.5 -37t-161.5 -107t-116 -180t-44 -244z" />
<glyph unicode="&#xf1;" horiz-adv-x="1161" d="M107 14l183 1032q0 5 5 9t11 4h37q8 0 8 -13l-12 -65l-25 -127h17q172 230 429 230q144 0 224 -78t80 -218q0 -37 -12 -105l-117 -669q-4 -14 -15 -14h-37q-10 0 -10 14l112 637q12 68 12 127q0 127 -61 185.5t-200 58.5q-77 0 -157 -36t-141 -91.5t-104 -124.5t-55 -135 l-109 -621q-4 -14 -12 -14h-38q-13 0 -13 14zM410 1320q0 6 2 10q26 81 86 128.5t126 47.5q38 0 93.5 -32t108 -63t82.5 -31q40 0 82.5 36t63.5 84q8 12 22 12h33q12 0 12 -16q-39 -81 -97 -132t-122 -51q-34 0 -76 20t-74.5 44t-70.5 44t-65 20q-98 0 -140 -117 q-6 -15 -20 -15h-36q-10 0 -10 11z" />
<glyph unicode="&#xf2;" horiz-adv-x="1222" d="M116 414q0 143 51.5 269t137 213t197.5 137.5t232 50.5q193 0 313 -122.5t120 -320.5q0 -142 -51.5 -268t-137.5 -212t-198 -136t-232 -50q-192 0 -312 121t-120 318zM182 418q0 -176 100 -277.5t268 -101.5q106 0 204.5 43t175 119.5t122.5 191t46 248.5 q0 176 -98.5 278.5t-265.5 102.5q-104 0 -203 -44t-176.5 -121t-125 -192t-47.5 -247zM675 1543q0 12 16 12h71q14 0 18 -14l68 -232q0 -6 -4.5 -11t-10.5 -5h-12q-16 0 -16 10l-128 232q-2 2 -2 8z" />
<glyph unicode="&#xf3;" horiz-adv-x="1222" d="M116 414q0 143 51.5 269t137 213t197.5 137.5t232 50.5q193 0 313 -122.5t120 -320.5q0 -142 -51.5 -268t-137.5 -212t-198 -136t-232 -50q-192 0 -312 121t-120 318zM182 418q0 -176 100 -277.5t268 -101.5q106 0 204.5 43t175 119.5t122.5 191t46 248.5 q0 176 -98.5 278.5t-265.5 102.5q-104 0 -203 -44t-176.5 -121t-125 -192t-47.5 -247zM705 1307q0 4 2 6l151 228q11 14 23 14h70q13 0 13 -8q0 -6 -7 -12l-209 -232q-10 -10 -18 -10h-12q-13 0 -13 14z" />
<glyph unicode="&#xf4;" horiz-adv-x="1222" d="M116 414q0 143 51.5 269t137 213t197.5 137.5t232 50.5q193 0 313 -122.5t120 -320.5q0 -142 -51.5 -268t-137.5 -212t-198 -136t-232 -50q-192 0 -312 121t-120 318zM182 418q0 -176 100 -277.5t268 -101.5q106 0 204.5 43t175 119.5t122.5 191t46 248.5 q0 176 -98.5 278.5t-265.5 102.5q-104 0 -203 -44t-176.5 -121t-125 -192t-47.5 -247zM548 1307q0 4 2 6l205 226q19 18 31 18h70q16 0 27 -18l122 -226q0 -20 -16 -20h-42q-18 0 -25 18l-109 201l-178 -201q-14 -18 -31 -18h-43q-13 0 -13 14z" />
<glyph unicode="&#xf5;" horiz-adv-x="1222" d="M116 414q0 143 51.5 269t137 213t197.5 137.5t232 50.5q193 0 313 -122.5t120 -320.5q0 -142 -51.5 -268t-137.5 -212t-198 -136t-232 -50q-192 0 -312 121t-120 318zM182 418q0 -176 100 -277.5t268 -101.5q106 0 204.5 43t175 119.5t122.5 191t46 248.5 q0 176 -98.5 278.5t-265.5 102.5q-104 0 -203 -44t-176.5 -121t-125 -192t-47.5 -247zM440 1320q0 6 2 10q27 81 86.5 128.5t126.5 47.5q38 0 93.5 -32t108 -63t82.5 -31q41 0 83.5 36t63.5 84q7 12 21 12h32q13 0 13 -16q-39 -81 -97 -132t-122 -51q-34 0 -76 20t-74.5 44 t-70 44t-65.5 20q-98 0 -140 -117q-6 -15 -21 -15h-36q-10 0 -10 11z" />
<glyph unicode="&#xf6;" horiz-adv-x="1222" d="M116 414q0 143 51.5 269t137 213t197.5 137.5t232 50.5q193 0 313 -122.5t120 -320.5q0 -142 -51.5 -268t-137.5 -212t-198 -136t-232 -50q-192 0 -312 121t-120 318zM182 418q0 -176 100 -277.5t268 -101.5q106 0 204.5 43t175 119.5t122.5 191t46 248.5 q0 176 -98.5 278.5t-265.5 102.5q-104 0 -203 -44t-176.5 -121t-125 -192t-47.5 -247zM527 1396q0 31 25.5 54t57.5 23q23 0 39.5 -15t16.5 -39q0 -29 -25 -54t-53 -25q-26 0 -43.5 16.5t-17.5 39.5zM922 1396q0 32 27 54.5t54 22.5t44 -14.5t17 -37.5q0 -31 -25 -56 t-58 -25q-25 0 -42 16.5t-17 39.5z" />
<glyph unicode="&#xf7;" d="M138 655v38q0 5 4.5 8.5t11.5 3.5h1025q6 0 10.5 -3.5t4.5 -8.5v-38q0 -14 -15 -14h-1025q-16 0 -16 14zM575 300q0 34 24 58.5t56 24.5q34 0 58.5 -25t24.5 -58t-24.5 -57t-58 -24t-57 24t-23.5 57zM575 1034q0 33 24 58t56.5 25t57.5 -25t25 -58t-24.5 -57t-58 -24 t-57 24t-23.5 57z" />
<glyph unicode="&#xf8;" horiz-adv-x="1222" d="M116 410q0 142 51.5 269t137 214.5t197.5 138t232 50.5q148 0 249 -66l41 52q11 14 28 14h30q10 0 10 -8q0 -4 -4 -8l-62 -83q141 -121 141 -338q0 -143 -51.5 -270t-137.5 -213.5t-198 -136.5t-232 -50q-145 0 -244 64l-35 -45q-11 -19 -27 -19h-35q-10 0 -10 9 q0 6 4 10l58 75q-143 117 -143 341zM182 416q0 -191 118 -292l643 838q-90 58 -211 58q-196 0 -348.5 -135.5t-191.5 -357.5q-10 -65 -10 -111zM343 91q84 -52 207 -52q106 0 204.5 43.5t175 120t122.5 191.5t46 249q0 184 -113 288z" />
<glyph unicode="&#xf9;" horiz-adv-x="1161" d="M162 261q0 64 10 116l118 667q0 6 4.5 10.5t9.5 4.5h37q10 0 10 -15l-113 -634q-13 -74 -13 -122q0 -126 61 -187.5t200 -61.5q78 0 157.5 36t141 91.5t105 125t55.5 134.5l109 618q0 6 4.5 10.5t9.5 4.5h37q5 0 8.5 -4.5t3.5 -10.5l-182 -1032q-4 -12 -17 -12h-37 q-8 0 -8 12l10 65l27 130h-14q-75 -100 -187 -166t-245 -66q-147 0 -224.5 73.5t-77.5 212.5zM645 1543q0 12 17 12h70q15 0 18 -14l69 -232q0 -6 -4 -11t-10 -5h-13q-16 0 -16 10l-129 232q-2 2 -2 8z" />
<glyph unicode="&#xfa;" horiz-adv-x="1161" d="M162 261q0 64 10 116l118 667q0 6 4.5 10.5t9.5 4.5h37q10 0 10 -15l-113 -634q-13 -74 -13 -122q0 -126 61 -187.5t200 -61.5q78 0 157.5 36t141 91.5t105 125t55.5 134.5l109 618q0 6 4.5 10.5t9.5 4.5h37q5 0 8.5 -4.5t3.5 -10.5l-182 -1032q-4 -12 -17 -12h-37 q-8 0 -8 12l10 65l27 130h-14q-75 -100 -187 -166t-245 -66q-147 0 -224.5 73.5t-77.5 212.5zM677 1307q0 4 2 6l150 228q10 14 23 14h70q13 0 13 -8q0 -6 -6 -12l-209 -232q-10 -10 -19 -10h-12q-12 0 -12 14z" />
<glyph unicode="&#xfb;" horiz-adv-x="1161" d="M162 261q0 64 10 116l118 667q0 6 4.5 10.5t9.5 4.5h37q10 0 10 -15l-113 -634q-13 -74 -13 -122q0 -126 61 -187.5t200 -61.5q78 0 157.5 36t141 91.5t105 125t55.5 134.5l109 618q0 6 4.5 10.5t9.5 4.5h37q5 0 8.5 -4.5t3.5 -10.5l-182 -1032q-4 -12 -17 -12h-37 q-8 0 -8 12l10 65l27 130h-14q-75 -100 -187 -166t-245 -66q-147 0 -224.5 73.5t-77.5 212.5zM519 1307q0 4 2 6l205 226q18 18 32 18h69q16 0 27 -18l123 -226q0 -20 -17 -20h-42q-17 0 -24 18l-110 201l-178 -201q-14 -18 -31 -18h-44q-12 0 -12 14z" />
<glyph unicode="&#xfc;" horiz-adv-x="1161" d="M162 261q0 64 10 116l118 667q0 6 4.5 10.5t9.5 4.5h37q10 0 10 -15l-113 -634q-13 -74 -13 -122q0 -126 61 -187.5t200 -61.5q78 0 157.5 36t141 91.5t105 125t55.5 134.5l109 618q0 6 4.5 10.5t9.5 4.5h37q5 0 8.5 -4.5t3.5 -10.5l-182 -1032q-4 -12 -17 -12h-37 q-8 0 -8 12l10 65l27 130h-14q-75 -100 -187 -166t-245 -66q-147 0 -224.5 73.5t-77.5 212.5zM497 1396q0 31 24.5 54t57.5 23q23 0 39.5 -15t16.5 -39q0 -29 -25 -54t-53 -25q-27 0 -43.5 16t-16.5 40zM892 1396q0 32 26.5 54.5t54.5 22.5q26 0 42.5 -14.5t16.5 -37.5 q0 -31 -24.5 -56t-58.5 -25q-23 0 -40 16.5t-17 39.5z" />
<glyph unicode="&#xfd;" horiz-adv-x="998" d="M174 -405q0 2 4 10l219 389l-219 1050q0 15 14 15h31q15 0 19 -17l151 -724l43 -239h17q59 119 126 237l412 726q10 17 25 17h41q9 0 9 -7q0 -4 -4 -12l-818 -1435q-10 -19 -25 -19h-35q-10 0 -10 9zM596 1307q0 4 2 6l150 228q12 14 24 14h70q12 0 12 -8q0 -6 -6 -12 l-209 -232q-10 -10 -19 -10h-12q-12 0 -12 14z" />
<glyph unicode="&#xfe;" horiz-adv-x="1224" d="M33 -401l340 1921q4 15 14 15h41q8 0 8 -7q0 -1 -1 -3t-1 -3l-99 -560l-29 -155h19q68 113 200.5 195t287.5 82q159 0 260.5 -102t101.5 -295q0 -129 -36.5 -245t-97.5 -199.5t-140.5 -145t-167 -92t-174.5 -30.5q-120 0 -200.5 31t-174.5 97l-89 -504q0 -4 -4.5 -8.5 t-9.5 -4.5h-38q-10 0 -10 13zM197 176q39 -31 53.5 -42t52.5 -34.5t68 -33t77.5 -18.5t101.5 -9q104 0 202.5 43.5t177 122t126 200t47.5 266.5q0 166 -82 258.5t-239 92.5q-78 0 -160.5 -35t-156.5 -98t-130.5 -162t-77.5 -216z" />
<glyph unicode="&#xff;" horiz-adv-x="998" d="M174 -405q0 2 4 10l219 389l-219 1050q0 15 14 15h31q15 0 19 -17l151 -724l43 -239h17q59 119 126 237l412 726q10 17 25 17h41q9 0 9 -7q0 -4 -4 -12l-818 -1435q-10 -19 -25 -19h-35q-10 0 -10 9zM416 1396q0 31 25.5 54t57.5 23q23 0 39 -15t16 -39q0 -29 -25 -54 t-53 -25q-27 0 -43.5 16t-16.5 40zM811 1396q0 32 27 54.5t54 22.5q26 0 42.5 -14.5t16.5 -37.5q0 -31 -24.5 -56t-57.5 -25q-24 0 -41 16.5t-17 39.5z" />
<glyph unicode="&#x152;" horiz-adv-x="2572" d="M168 573q0 232 112.5 437.5t309 331t426.5 125.5q213 0 367.5 -113t205.5 -297l65 368q5 16 18 16h949q12 0 12 -12l-6 -35q0 -6 -5 -10t-11 -4h-898l-108 -610h793q12 0 12 -10l-6 -36q0 -6 -5.5 -10.5t-11.5 -4.5h-792l-114 -649h898q12 0 12 -11l-6 -35 q-3 -14 -17 -14h-949q-12 0 -12 16l62 369q-115 -183 -306 -296.5t-401 -113.5q-138 0 -250.5 46t-187.5 125.5t-115.5 189t-40.5 237.5zM238 579q0 -245 144.5 -391.5t381.5 -146.5q145 0 285.5 62t249.5 168.5t175.5 262.5t66.5 331q0 242 -145.5 388.5t-381.5 146.5 q-146 0 -286 -61.5t-248.5 -167.5t-175 -262t-66.5 -330z" />
<glyph unicode="&#x153;" horiz-adv-x="2122" d="M114 410q0 142 51.5 269t137 215t197.5 139t232 51q169 0 282.5 -93.5t139.5 -252.5q80 163 221.5 254.5t312.5 91.5q180 0 278 -97.5t98 -283.5q0 -77 -14 -155q-1 -7 -7.5 -12t-11.5 -5h-873q-10 -62 -10 -105q0 -189 105 -288t294 -99q35 0 71.5 4.5t61.5 9t62.5 15.5 t50 15t49 17.5t37.5 13.5q6 3 10 -4q4 -17 7 -28.5t4 -15t1 -4.5q0 -10 -8 -15q-88 -37 -168 -54.5t-197 -17.5q-183 0 -299 92t-141 251q-83 -158 -228 -250.5t-314 -92.5q-192 0 -312 119.5t-120 315.5zM180 418q0 -171 102.5 -275t265.5 -104q106 0 204.5 43t175 119.5 t122.5 191t46 248.5q0 176 -98.5 278.5t-265.5 102.5q-104 0 -203 -44t-176.5 -121t-125 -192t-47.5 -247zM1173 590h819q8 47 8 99q0 154 -83 243.5t-229 89.5q-178 0 -320 -116t-195 -316z" />
<glyph unicode="&#x178;" horiz-adv-x="1244" d="M199 1429q0 12 10 12h43q13 0 19 -14l400 -776l671 776q8 14 22 14h53q8 0 8 -8q0 -6 -4 -10l-724 -833l-101 -576q-4 -14 -17 -14h-37q-13 0 -13 14l102 576l-430 833q-2 2 -2 6zM604 1779q0 31 25 53.5t58 22.5q23 0 39 -14.5t16 -38.5q0 -29 -25 -54t-53 -25 q-27 0 -43.5 15.5t-16.5 40.5zM999 1779q0 32 26.5 54t54.5 22q26 0 42.5 -14t16.5 -37q0 -31 -24 -56t-58 -25q-24 0 -41 16t-17 40z" />
<glyph unicode="&#x2c6;" horiz-adv-x="874" d="M381 1307q0 4 2 6l205 226q18 18 30 18h71q16 0 27 -18l121 -226q0 -20 -16 -20h-41q-17 0 -25 18l-110 201l-177 -201q-15 -18 -32 -18h-43q-12 0 -12 14z" />
<glyph unicode="&#x2dc;" horiz-adv-x="922" d="M296 1320q0 6 2 10q26 81 85.5 128.5t127.5 47.5q37 0 92.5 -32t108 -63t82.5 -31q40 0 83 36.5t64 83.5q7 12 21 12h33q12 0 12 -16q-39 -81 -97.5 -132t-121.5 -51q-44 0 -98 32.5t-103.5 64t-83.5 31.5q-99 0 -141 -117q-6 -15 -21 -15h-35q-10 0 -10 11z" />
<glyph unicode="&#x2000;" horiz-adv-x="1058" />
<glyph unicode="&#x2001;" horiz-adv-x="2116" />
<glyph unicode="&#x2002;" horiz-adv-x="1058" />
<glyph unicode="&#x2003;" horiz-adv-x="2116" />
<glyph unicode="&#x2004;" horiz-adv-x="705" />
<glyph unicode="&#x2005;" horiz-adv-x="529" />
<glyph unicode="&#x2006;" horiz-adv-x="352" />
<glyph unicode="&#x2007;" horiz-adv-x="352" />
<glyph unicode="&#x2008;" horiz-adv-x="264" />
<glyph unicode="&#x2009;" horiz-adv-x="423" />
<glyph unicode="&#x200a;" horiz-adv-x="117" />
<glyph unicode="&#x2010;" horiz-adv-x="651" d="M105 575l7 39q0 5 5 9t11 4h490q13 0 13 -13l-7 -39q-4 -14 -18 -14h-490q-11 0 -11 14z" />
<glyph unicode="&#x2011;" horiz-adv-x="651" d="M105 575l7 39q0 5 5 9t11 4h490q13 0 13 -13l-7 -39q-4 -14 -18 -14h-490q-11 0 -11 14z" />
<glyph unicode="&#x2012;" horiz-adv-x="651" d="M105 575l7 39q0 5 5 9t11 4h490q13 0 13 -13l-7 -39q-4 -14 -18 -14h-490q-11 0 -11 14z" />
<glyph unicode="&#x2013;" horiz-adv-x="1166" d="M105 571v4l7 39q0 4 4.5 8.5t9.5 4.5h1007q13 0 13 -13l-7 -39q-4 -14 -18 -14h-1007q-9 0 -9 10z" />
<glyph unicode="&#x2014;" horiz-adv-x="2068" d="M105 571v4l7 39q0 4 4.5 8.5t9.5 4.5h1909q13 0 13 -13l-7 -39q-3 -14 -18 -14h-1909q-9 0 -9 10z" />
<glyph unicode="&#x2018;" horiz-adv-x="427" d="M267 1144q0 170 205 378q6 6 12 6q1 0 3 -1t3 -1l11 -8q4 -4 4 -8t-4 -8q-73 -82 -101.5 -135.5t-37.5 -100.5q-2 -7 -2 -15q0 -18 34 -45t34 -56q0 -32 -29 -60t-62 -28q-30 0 -50 21.5t-20 60.5z" />
<glyph unicode="&#x2019;" horiz-adv-x="427" d="M255 1086q0 4 6 10q72 82 100.5 135.5t37.5 104.5v12q0 18 -35 45.5t-35 54.5q0 32 31 61.5t64 29.5q28 0 48 -22.5t20 -62.5q0 -171 -204 -378q-3 -3 -9.5 -5t-9.5 1l-10 8q-4 4 -4 6z" />
<glyph unicode="&#x201a;" horiz-adv-x="427" d="M8 -314q0 4 6 10q74 83 102 136.5t38 103.5v12q0 18 -35.5 45t-35.5 54q0 32 30.5 61.5t64.5 29.5q28 0 48 -22.5t20 -61.5q0 -171 -205 -379q-3 -3 -9 -5t-9 1l-11 9q-4 4 -4 6z" />
<glyph unicode="&#x201c;" horiz-adv-x="795" d="M267 1144q0 170 205 378q6 6 12 6q1 0 3 -1t3 -1l11 -8q4 -4 4 -8t-4 -8q-73 -82 -101.5 -135.5t-37.5 -100.5q-2 -7 -2 -15q0 -18 34 -45t34 -56q0 -32 -29 -60t-62 -28q-30 0 -50 21.5t-20 60.5zM633 1144q0 171 204 378q6 6 13 6q1 0 3 -1t3 -1l11 -8q4 -4 4 -8t-4 -8 q-119 -132 -139 -236q-2 -7 -2 -15q0 -18 34 -45t34 -56q0 -32 -29.5 -60t-61.5 -28q-29 0 -49.5 21.5t-20.5 60.5z" />
<glyph unicode="&#x201d;" horiz-adv-x="795" d="M255 1086q0 4 6 10q72 82 100.5 135.5t37.5 104.5v12q0 18 -35 45.5t-35 54.5q0 32 31 61.5t64 29.5q28 0 48 -22.5t20 -62.5q0 -171 -204 -378q-3 -3 -9.5 -5t-9.5 1l-10 8q-4 4 -4 6zM622 1086q0 3 7 10q73 82 101.5 135.5t37.5 104.5v12q0 18 -35.5 45.5t-35.5 54.5 q0 32 31 61.5t64 29.5q28 0 48.5 -22.5t20.5 -62.5q0 -170 -206 -378q-3 -3 -9 -5t-9 1l-10 8q-5 5 -5 6z" />
<glyph unicode="&#x201e;" horiz-adv-x="797" d="M8 -314q0 4 6 10q74 83 102 136.5t38 103.5v12q0 18 -35.5 45t-35.5 54q0 32 30.5 61.5t64.5 29.5q28 0 48 -22.5t20 -61.5q0 -171 -205 -379q-3 -3 -9 -5t-9 1l-11 9q-4 4 -4 6zM377 -314q0 4 6 10q73 82 101 135.5t37 104.5v12q0 18 -35.5 45t-35.5 54q0 32 31.5 61.5 t64.5 29.5q29 0 48.5 -22.5t19.5 -61.5q0 -172 -204 -379q-3 -3 -9.5 -5t-9.5 1l-10 9q-4 4 -4 6z" />
<glyph unicode="&#x2022;" horiz-adv-x="754" d="M160 649q0 18 4 50q20 117 117 201.5t209 84.5q100 0 167 -69.5t67 -169.5q0 -128 -103.5 -230t-229.5 -102q-100 0 -165.5 67t-65.5 168z" />
<glyph unicode="&#x2026;" horiz-adv-x="1784" d="M79 33q0 10 2 14q4 32 29.5 53.5t57.5 21.5q26 0 42.5 -17.5t16.5 -44.5q0 -34 -27 -59.5t-60 -25.5q-27 0 -44 16.5t-17 41.5zM764 33q0 10 2 14q4 32 29.5 53.5t56.5 21.5q27 0 43.5 -17.5t16.5 -44.5q0 -34 -27.5 -59.5t-59.5 -25.5q-27 0 -44 16.5t-17 41.5zM1446 33 q0 10 2 14q4 32 30 53.5t57 21.5q26 0 43 -17.5t17 -44.5q0 -34 -27.5 -59.5t-59.5 -25.5q-27 0 -44.5 16.5t-17.5 41.5z" />
<glyph unicode="&#x202f;" horiz-adv-x="423" />
<glyph unicode="&#x2039;" horiz-adv-x="748" d="M148 586q0 9 12 20l511 434q8 4 12 4t8 -4l21 -26q2 -2 2 -9t-5 -10l-482 -409l334 -406v-8q0 -8 -4 -10l-26 -24q-4 -4 -10 -4q-4 0 -8 4l-357 433q-8 7 -8 15z" />
<glyph unicode="&#x203a;" horiz-adv-x="748" d="M73 174q0 8 4 10l482 410l-334 405v8q0 9 4 11l26 22q4 4 10 4q4 0 8 -4l358 -432q6 -6 6 -14q0 -11 -10 -21l-511 -435q-8 -4 -13 -4q-4 0 -8 4l-20 28q-2 2 -2 8z" />
<glyph unicode="&#x205f;" horiz-adv-x="529" />
<glyph unicode="&#x20ac;" horiz-adv-x="1445" d="M56 529v4l6 36q5 15 13 15h163q6 148 56 291h-168q-8 0 -8 15l8 39q0 4 3.5 8t8.5 4h182q107 236 312.5 381t459.5 145q116 0 222.5 -34t185.5 -95q6 -6 6 -10t-4 -8l-27 -29q-6 -6 -15 -6q-6 0 -8 2q-140 113 -362 113q-216 0 -406 -124t-293 -335h755q12 0 12 -12 l-8 -39q0 -6 -5.5 -10.5t-11.5 -4.5h-769q-54 -131 -54 -291h772q4 0 8 -4t4 -9v-2l-6 -36q-3 -14 -16 -14h-760q20 -221 163 -349.5t364 -128.5q105 0 211.5 32t196.5 93q2 2 8 2q10 0 13 -8l21 -34q2 -2 2 -8q0 -8 -10 -15q-219 -128 -444 -128q-257 0 -416 151.5 t-179 392.5h-178q-8 0 -8 10z" />
<glyph unicode="&#x2122;" horiz-adv-x="1614" d="M221 1400v5l4 18q2 6 7.5 12t11.5 6h552q5 0 10 -5t5 -11v-2l-4 -18q-3 -17 -19 -17h-244l-122 -693q-4 -18 -21 -18h-30q-13 0 -13 12v6l122 693h-245q-14 0 -14 12zM902 691v4l128 728q2 7 7.5 12.5t12.5 5.5h83q13 0 13 -10v-2l135 -568l324 568q8 12 21 12h81 q6 0 11 -5t5 -11v-2l-128 -728q-1 -7 -9 -12.5t-14 -5.5h-25q-14 0 -14 14v4l117 677h-16l-329 -563q-2 -4 -20 -10h-21q-19 0 -21 6l-142 579h-19l-120 -689q-5 -18 -23 -18h-23q-14 0 -14 14z" />
<glyph unicode="&#x25fc;" horiz-adv-x="1060" d="M0 0v1060h1060v-1060h-1060z" />
<glyph unicode="&#xfb01;" horiz-adv-x="1114" d="M152 1014l6 30q0 6 4.5 10.5t9.5 4.5h179l26 153q27 162 134 252.5t279 90.5q50 0 107.5 -7.5t83.5 -19.5q14 -6 14 -12t-4 -14l-12 -23q-7 -10 -22 -10q-76 23 -181 23q-136 0 -222.5 -70t-111.5 -208l-26 -155h366q5 0 8.5 -4.5t3.5 -10.5l-6 -30q-2 -5 -7 -10t-9 -5 h-367l-174 -985q-3 -14 -14 -14h-35q-14 0 -14 14l173 985h-179q-10 0 -10 15zM823 14l182 1032q0 5 5.5 9t11.5 4h35q11 0 11 -13l-182 -1032q-3 -14 -15 -14h-36q-12 0 -12 14zM1048 1464q0 3 1 7t1 6q5 24 25 41t44 17q20 0 35 -15t15 -35q0 -29 -22.5 -48.5t-48.5 -19.5 q-22 0 -36 12.5t-14 34.5z" />
<glyph unicode="&#xfb02;" horiz-adv-x="1114" d="M152 1014l6 30q0 6 4.5 10.5t9.5 4.5h179l26 153q27 162 134 252.5t279 90.5q50 0 107.5 -7.5t83.5 -19.5q14 -6 14 -12t-4 -14l-12 -23q-7 -10 -22 -10q-76 23 -181 23q-136 0 -222.5 -70t-111.5 -208l-26 -155h366q5 0 8.5 -4.5t3.5 -10.5l-6 -30q-2 -5 -7 -10t-9 -5 h-367l-174 -985q-3 -14 -14 -14h-35q-14 0 -14 14l173 985h-179q-10 0 -10 15zM823 14l265 1508q4 13 17 13h36q9 0 9 -13l-264 -1508q-3 -14 -13 -14h-38q-12 0 -12 14z" />
</font>
</defs>
</svg>
